<svg width="20" height="20" viewBox="0 0 20 20" fill="none" xmlns="http://www.w3.org/2000/svg">
<path d="M10 0C8.02219 0 6.08879 0.58649 4.4443 1.6853C2.79981 2.78412 1.51809 4.3459 0.761209 6.17317C0.00433284 8.00043 -0.193701 10.0111 0.192152 11.9509C0.578004 13.8907 1.53041 15.6725 2.92894 17.0711C4.32746 18.4696 6.10929 19.422 8.0491 19.8079C9.98891 20.1937 11.9996 19.9957 13.8268 19.2388C15.6541 18.4819 17.2159 17.2002 18.3147 15.5557C19.4135 13.9112 20 11.9778 20 10C19.9968 7.34881 18.9422 4.80712 17.0676 2.93244C15.1929 1.05776 12.6512 0.00317572 10 0ZM10 1.538C11.6155 1.53747 13.1974 1.99962 14.5586 2.8698C15.9197 3.73998 17.0032 4.98178 17.6808 6.44832C18.3584 7.91487 18.6019 9.5448 18.3823 11.1453C18.1628 12.7459 17.4895 14.2501 16.442 15.48L4.638 3.438C6.15104 2.20223 8.04646 1.5306 10 1.538ZM3.558 4.519L15.358 16.561C13.721 17.8924 11.6459 18.5645 9.5392 18.4456C7.43252 18.3267 5.44616 17.4254 3.96936 15.9183C2.49256 14.4113 1.63178 12.407 1.55568 10.2983C1.47959 8.18969 2.19367 6.12861 3.558 4.519Z" fill="#5564E7"/>
</svg>
