<svg width="16" height="24" viewBox="0 0 16 24" fill="none" xmlns="http://www.w3.org/2000/svg">
<path fill-rule="evenodd" clip-rule="evenodd" d="M12.899 11H3.10102C3.08402 11.0167 3.0671 11.0334 3.05025 11.0503C1.7375 12.363 1 14.1435 1 16C1 17.8565 1.7375 19.637 3.05025 20.9497C4.36301 22.2625 6.14348 23 8 23C9.85652 23 11.637 22.2625 12.9497 20.9497C14.2625 19.637 15 17.8565 15 16C15 14.1435 14.2625 12.363 12.9497 11.0503C12.9329 11.0334 12.916 11.0167 12.899 11ZM8.70711 15.7071C8.51957 15.8946 8.26522 16 8 16C7.73478 16 7.48043 15.8946 7.29289 15.7071C7.10536 15.5196 7 15.2652 7 15C7 14.7348 7.10536 14.4804 7.29289 14.2929C7.48043 14.1054 7.73478 14 8 14C8.26522 14 8.51957 14.1054 8.70711 14.2929C8.89464 14.4804 9 14.7348 9 15C9 15.2652 8.89464 15.5196 8.70711 15.7071Z" fill="white"/>
<path d="M8 15V19M12.899 11H3.10102M12.899 11C12.916 11.0167 12.9329 11.0334 12.9497 11.0503C14.2625 12.363 15 14.1435 15 16C15 17.8565 14.2625 19.637 12.9497 20.9497C11.637 22.2625 9.85652 23 8 23C6.14348 23 4.36301 22.2625 3.05025 20.9497C1.7375 19.637 1 17.8565 1 16C1 14.1435 1.7375 12.363 3.05025 11.0503C3.0671 11.0334 3.08402 11.0167 3.10102 11M12.899 11C11.5913 9.71869 9.83269 9 8 9C6.16731 9 4.40872 9.71869 3.10102 11M12.899 11H13V6C13 3 11 1 8 1C5 1 3 3 3 6V11H3.10102M8 16C8.26522 16 8.51957 15.8946 8.70711 15.7071C8.89464 15.5196 9 15.2652 9 15C9 14.7348 8.89464 14.4804 8.70711 14.2929C8.51957 14.1054 8.26522 14 8 14C7.73478 14 7.48043 14.1054 7.29289 14.2929C7.10536 14.4804 7 14.7348 7 15C7 15.2652 7.10536 15.5196 7.29289 15.7071C7.48043 15.8946 7.73478 16 8 16Z" stroke="#5564E7" stroke-width="2"/>
</svg>
