<svg width="18" height="18" viewBox="0 0 18 18" fill="none" xmlns="http://www.w3.org/2000/svg">
<path d="M8.99995 17.1073C4.52949 17.1073 0.892578 13.4703 0.892578 8.99981C0.892578 4.52935 4.52949 0.892578 8.99995 0.892578C13.4704 0.892578 17.1073 4.52939 17.1073 8.99985C17.1073 13.4703 13.4704 17.1073 8.99995 17.1073Z" fill="white"/>
<path d="M9 1.51684C13.1262 1.51684 16.4832 4.87379 16.4832 9C16.4832 13.1262 13.1262 16.4832 9 16.4832C4.87376 16.4832 1.51684 13.1262 1.51684 9C1.51684 4.87379 4.87376 1.51684 9 1.51684ZM9 0C4.02943 0 0 4.02943 0 9C0 13.9706 4.02943 18 9 18C13.9706 18 18 13.9706 18 9C18 4.02943 13.9706 0 9 0Z" fill="#5564E7"/>
<path d="M8.99978 9.66933C8.63747 9.66933 8.34375 9.37561 8.34375 9.0133V3.19802C8.34375 2.83572 8.63747 2.54199 8.99978 2.54199C9.36208 2.54199 9.65581 2.83572 9.65581 3.19802V9.0133C9.65581 9.37561 9.36208 9.66933 8.99978 9.66933Z" fill="#5564E7"/>
<path d="M13.1822 10.6548L9.90654 8.76612C9.80275 8.36127 9.43544 8.06201 8.99821 8.06201C8.48033 8.06201 8.06055 8.48183 8.06055 8.99967C8.06055 9.51754 8.48037 9.93733 8.99821 9.93733C9.08579 9.93733 9.17044 9.92506 9.25087 9.90261L12.5269 11.7914C12.6263 11.849 12.7391 11.8792 12.854 11.8792C13.0808 11.8792 13.3015 11.7614 13.4229 11.5508C13.6038 11.2369 13.4961 10.8357 13.1822 10.6548Z" fill="#5564E7"/>
</svg>
