<svg width="19" height="17" viewBox="0 0 19 17" fill="none" xmlns="http://www.w3.org/2000/svg">
<path d="M17.5372 13.5477C18.039 12.6097 18.3044 11.5635 18.3105 10.4998C18.3165 9.43606 18.0631 8.38692 17.5721 7.44328C17.081 6.49965 16.3673 5.69002 15.4926 5.08457C14.618 4.47912 13.6089 4.09612 12.5528 3.96878C12.2058 3.15708 11.698 2.42405 11.0601 1.81385C10.4222 1.20366 9.6673 0.728934 8.84099 0.418288C8.01468 0.107643 7.13403 -0.0324928 6.25211 0.00632635C5.37019 0.0451455 4.50526 0.262116 3.70944 0.644162C2.91362 1.02621 2.20339 1.56542 1.62155 2.22931C1.0397 2.89319 0.598288 3.66801 0.323909 4.50705C0.0495298 5.3461 -0.0521356 6.23202 0.0250394 7.11141C0.102214 7.99081 0.356632 8.84547 0.772961 9.6239L0.267449 11.3937C0.211362 11.5899 0.208773 11.7976 0.25995 11.9952C0.311127 12.1927 0.414209 12.373 0.558513 12.5174C0.702816 12.6617 0.883091 12.7648 1.08065 12.816C1.27822 12.8672 1.48588 12.8647 1.68213 12.8086L3.45207 12.3029C4.16832 12.6863 4.94984 12.9326 5.75647 13.0291C6.11307 13.8633 6.63925 14.6142 7.3016 15.2341C7.96394 15.854 8.74798 16.3295 9.60391 16.6302C10.4598 16.9309 11.3689 17.0503 12.2735 16.9808C13.178 16.9113 14.0582 16.6545 14.8582 16.2266L16.6281 16.7324C16.8243 16.7884 17.032 16.791 17.2295 16.7398C17.4271 16.6886 17.6074 16.5855 17.7517 16.4412C17.896 16.2969 17.9991 16.1166 18.0503 15.919C18.1015 15.7214 18.0989 15.5138 18.0428 15.3175L17.5372 13.5477ZM3.53513 10.945C3.47436 10.945 3.41388 10.9535 3.35545 10.9702L1.60578 11.4701L2.10565 9.72028C2.13013 9.6346 2.13683 9.54483 2.12536 9.45647C2.11389 9.36811 2.08449 9.28302 2.03895 9.20643C1.38914 8.11071 1.16167 6.81546 1.39924 5.56389C1.63681 4.31232 2.32308 3.19052 3.3292 2.40912C4.33532 1.62771 5.59207 1.24046 6.8635 1.32006C8.13493 1.39967 9.33357 1.94066 10.2344 2.84145C11.1352 3.74225 11.6761 4.94089 11.7558 6.21231C11.8354 7.48374 11.4481 8.7405 10.6667 9.74662C9.88529 10.7527 8.76349 11.439 7.51192 11.6766C6.26036 11.9141 4.96511 11.6867 3.86938 11.0369C3.76826 10.9767 3.65278 10.945 3.53513 10.945ZM16.2711 13.13C16.2255 13.2066 16.1961 13.2918 16.1847 13.3801C16.1732 13.4685 16.1799 13.5583 16.2044 13.644L16.7043 15.3939L14.9545 14.8939C14.8688 14.8695 14.779 14.8628 14.6907 14.8743C14.6023 14.8858 14.5172 14.9152 14.4407 14.9607C13.8422 15.3154 13.1789 15.5472 12.4898 15.6427C11.8007 15.7381 11.0994 15.6951 10.427 15.5164C9.75468 15.3376 9.1247 15.0266 8.57392 14.6016C8.02315 14.1765 7.56263 13.6459 7.2193 13.0408C8.11508 12.9481 8.98201 12.6712 9.76564 12.2274C10.5493 11.7837 11.2327 11.1826 11.7729 10.4621C12.3132 9.74158 12.6986 8.91712 12.9049 8.04052C13.1113 7.16392 13.1342 6.25412 12.9721 5.36825C13.7711 5.55698 14.5146 5.93106 15.1423 6.46024C15.77 6.98942 16.2644 7.65886 16.5856 8.41445C16.9067 9.17005 17.0456 9.99061 16.9909 10.8098C16.9363 11.629 16.6897 12.4238 16.2711 13.1301V13.13Z" fill="#5564E7"/>
</svg>
