<svg width="18" height="22" viewBox="0 0 18 22" fill="none" xmlns="http://www.w3.org/2000/svg">
<path fill-rule="evenodd" clip-rule="evenodd" d="M13.862 4.76305C14.5006 5.40147 15.0072 6.15945 15.3528 6.99368C15.6984 7.82791 15.8763 8.72206 15.8763 9.62505C15.8763 10.528 15.6984 11.4222 15.3528 12.2564C15.0072 13.0906 14.5006 13.8486 13.862 14.487L9 19.3463L4.138 14.4857C3.49952 13.8472 2.99304 13.0892 2.64749 12.255C2.30195 11.4207 2.1241 10.5266 2.1241 9.62367C2.1241 8.72071 2.30195 7.8266 2.64749 6.99237C2.99304 6.15815 3.49952 5.40016 4.138 4.76167C4.77649 4.12318 5.53448 3.61671 6.36871 3.27116C7.20293 2.92561 8.09705 2.74776 9 2.74776C9.90296 2.74776 10.7971 2.92561 11.6313 3.27116C12.4655 3.61671 13.2235 4.12318 13.862 4.76167V4.76305ZM15.3195 15.9445C16.5695 14.6946 17.4208 13.1021 17.7657 11.3684C18.1106 9.63468 17.9337 7.83761 17.2572 6.20445C16.5808 4.57129 15.4353 3.1754 13.9655 2.1933C12.4957 1.21121 10.7677 0.687012 9 0.687012C7.2323 0.687012 5.5043 1.21121 4.03452 2.1933C2.56474 3.1754 1.41919 4.57129 0.742758 6.20445C0.0663224 7.83761 -0.110626 9.63468 0.234291 11.3684C0.579207 13.1021 1.4305 14.6946 2.6805 15.9445L7.54113 20.8065C7.73267 20.9982 7.96009 21.1502 8.21041 21.254C8.46073 21.3577 8.72904 21.4111 9 21.4111C9.27097 21.4111 9.53927 21.3577 9.78959 21.254C10.0399 21.1502 10.2673 20.9982 10.4589 20.8065L15.3195 15.9445ZM9 12.375C9.72935 12.375 10.4288 12.0853 10.9445 11.5696C11.4603 11.0539 11.75 10.3544 11.75 9.62505C11.75 8.8957 11.4603 8.19623 10.9445 7.6805C10.4288 7.16478 9.72935 6.87505 9 6.87505C8.27066 6.87505 7.57119 7.16478 7.05546 7.6805C6.53974 8.19623 6.25 8.8957 6.25 9.62505C6.25 10.3544 6.53974 11.0539 7.05546 11.5696C7.57119 12.0853 8.27066 12.375 9 12.375Z" fill="black"/>
</svg>
