<svg width="113" height="32" viewBox="0 0 113 32" fill="none" xmlns="http://www.w3.org/2000/svg">
<rect width="112.239" height="32" rx="16" fill="url(#paint0_linear)" style="mix-blend-mode:hard-light"/>
<path d="M21.602 21V8.31H22.844L27.722 17.472L32.564 8.31H33.806V21H32.438V11.082L28.208 19.038H27.236L22.952 11.1V21H21.602ZM40.7084 21.162C39.3284 21.162 38.2364 20.76 37.4324 19.956C36.6284 19.14 36.2264 18.036 36.2264 16.644C36.2264 15.744 36.4064 14.952 36.7664 14.268C37.1264 13.572 37.6184 13.038 38.2424 12.666C38.8784 12.282 39.6104 12.09 40.4384 12.09C41.6264 12.09 42.5564 12.474 43.2284 13.242C43.9004 13.998 44.2364 15.042 44.2364 16.374V16.932H37.6484C37.6964 17.928 37.9844 18.69 38.5124 19.218C39.0404 19.734 39.7724 19.992 40.7084 19.992C41.2364 19.992 41.7404 19.914 42.2204 19.758C42.7004 19.59 43.1564 19.32 43.5884 18.948L44.0924 19.974C43.6964 20.346 43.1924 20.64 42.5804 20.856C41.9684 21.06 41.3444 21.162 40.7084 21.162ZM40.4744 13.17C39.6464 13.17 38.9924 13.428 38.5124 13.944C38.0324 14.46 37.7504 15.138 37.6664 15.978H42.9764C42.9404 15.09 42.7064 14.4 42.2744 13.908C41.8544 13.416 41.2544 13.17 40.4744 13.17ZM49.2985 21.162C48.6145 21.162 47.9665 21.066 47.3545 20.874C46.7425 20.682 46.2385 20.412 45.8425 20.064L46.3105 19.038C46.7425 19.386 47.2165 19.644 47.7325 19.812C48.2605 19.968 48.7945 20.046 49.3345 20.046C50.0185 20.046 50.5345 19.92 50.8825 19.668C51.2305 19.416 51.4045 19.074 51.4045 18.642C51.4045 18.306 51.2905 18.042 51.0625 17.85C50.8345 17.646 50.4745 17.49 49.9825 17.382L48.3445 17.022C46.8565 16.698 46.1125 15.93 46.1125 14.718C46.1125 13.926 46.4245 13.29 47.0485 12.81C47.6845 12.33 48.5125 12.09 49.5325 12.09C50.1325 12.09 50.7025 12.186 51.2425 12.378C51.7945 12.558 52.2505 12.828 52.6105 13.188L52.1245 14.214C51.7765 13.89 51.3685 13.644 50.9005 13.476C50.4445 13.296 49.9885 13.206 49.5325 13.206C48.8605 13.206 48.3505 13.338 48.0025 13.602C47.6545 13.866 47.4805 14.214 47.4805 14.646C47.4805 15.318 47.9245 15.75 48.8125 15.942L50.4505 16.284C51.2185 16.452 51.8005 16.722 52.1965 17.094C52.5925 17.454 52.7905 17.946 52.7905 18.57C52.7905 19.374 52.4725 20.01 51.8365 20.478C51.2005 20.934 50.3545 21.162 49.2985 21.162ZM57.9645 21.162C57.2805 21.162 56.6325 21.066 56.0205 20.874C55.4085 20.682 54.9045 20.412 54.5085 20.064L54.9765 19.038C55.4085 19.386 55.8825 19.644 56.3985 19.812C56.9265 19.968 57.4605 20.046 58.0005 20.046C58.6845 20.046 59.2005 19.92 59.5485 19.668C59.8965 19.416 60.0705 19.074 60.0705 18.642C60.0705 18.306 59.9565 18.042 59.7285 17.85C59.5005 17.646 59.1405 17.49 58.6485 17.382L57.0105 17.022C55.5225 16.698 54.7785 15.93 54.7785 14.718C54.7785 13.926 55.0905 13.29 55.7145 12.81C56.3505 12.33 57.1785 12.09 58.1985 12.09C58.7985 12.09 59.3685 12.186 59.9085 12.378C60.4605 12.558 60.9165 12.828 61.2765 13.188L60.7905 14.214C60.4425 13.89 60.0345 13.644 59.5665 13.476C59.1105 13.296 58.6545 13.206 58.1985 13.206C57.5265 13.206 57.0165 13.338 56.6685 13.602C56.3205 13.866 56.1465 14.214 56.1465 14.646C56.1465 15.318 56.5905 15.75 57.4785 15.942L59.1165 16.284C59.8845 16.452 60.4665 16.722 60.8625 17.094C61.2585 17.454 61.4565 17.946 61.4565 18.57C61.4565 19.374 61.1385 20.01 60.5025 20.478C59.8665 20.934 59.0205 21.162 57.9645 21.162ZM66.4325 21.162C65.8325 21.162 65.2925 21.048 64.8125 20.82C64.3445 20.58 63.9725 20.256 63.6965 19.848C63.4205 19.44 63.2825 18.984 63.2825 18.48C63.2825 17.844 63.4445 17.34 63.7685 16.968C64.1045 16.596 64.6505 16.332 65.4065 16.176C66.1745 16.008 67.2185 15.924 68.5385 15.924H69.1145V15.366C69.1145 14.622 68.9585 14.088 68.6465 13.764C68.3465 13.428 67.8605 13.26 67.1885 13.26C66.6605 13.26 66.1505 13.338 65.6585 13.494C65.1665 13.638 64.6625 13.878 64.1465 14.214L63.6425 13.152C64.0985 12.828 64.6505 12.57 65.2985 12.378C65.9585 12.186 66.5885 12.09 67.1885 12.09C68.3165 12.09 69.1505 12.366 69.6905 12.918C70.2425 13.47 70.5185 14.328 70.5185 15.492V21H69.1505V19.488C68.9225 20.004 68.5685 20.412 68.0885 20.712C67.6205 21.012 67.0685 21.162 66.4325 21.162ZM66.6665 20.064C67.3865 20.064 67.9745 19.818 68.4305 19.326C68.8865 18.822 69.1145 18.186 69.1145 17.418V16.878H68.5565C67.5845 16.878 66.8165 16.926 66.2525 17.022C65.7005 17.106 65.3105 17.262 65.0825 17.49C64.8665 17.706 64.7585 18.006 64.7585 18.39C64.7585 18.882 64.9265 19.284 65.2625 19.596C65.6105 19.908 66.0785 20.064 66.6665 20.064ZM77.0935 24.402C76.3375 24.402 75.6235 24.3 74.9515 24.096C74.2915 23.904 73.7035 23.61 73.1875 23.214L73.6735 22.152C74.2135 22.536 74.7475 22.812 75.2755 22.98C75.8155 23.148 76.3975 23.232 77.0215 23.232C78.7495 23.232 79.6135 22.344 79.6135 20.568V19.02C79.3615 19.572 78.9655 20.01 78.4255 20.334C77.8975 20.646 77.2915 20.802 76.6075 20.802C75.8035 20.802 75.1075 20.616 74.5195 20.244C73.9315 19.872 73.4755 19.362 73.1515 18.714C72.8395 18.054 72.6835 17.292 72.6835 16.428C72.6835 15.564 72.8395 14.808 73.1515 14.16C73.4755 13.5 73.9315 12.99 74.5195 12.63C75.1075 12.27 75.8035 12.09 76.6075 12.09C77.2915 12.09 77.8975 12.246 78.4255 12.558C78.9655 12.87 79.3615 13.296 79.6135 13.836V12.252H81.0355V20.37C81.0355 21.714 80.6995 22.722 80.0275 23.394C79.3675 24.066 78.3895 24.402 77.0935 24.402ZM76.8775 19.614C77.7175 19.614 78.3835 19.326 78.8755 18.75C79.3675 18.174 79.6135 17.4 79.6135 16.428C79.6135 15.456 79.3675 14.688 78.8755 14.124C78.3835 13.548 77.7175 13.26 76.8775 13.26C76.0495 13.26 75.3895 13.548 74.8975 14.124C74.4055 14.688 74.1595 15.456 74.1595 16.428C74.1595 17.4 74.4055 18.174 74.8975 18.75C75.3895 19.326 76.0495 19.614 76.8775 19.614ZM87.7123 21.162C86.3323 21.162 85.2403 20.76 84.4363 19.956C83.6323 19.14 83.2303 18.036 83.2303 16.644C83.2303 15.744 83.4103 14.952 83.7703 14.268C84.1303 13.572 84.6223 13.038 85.2463 12.666C85.8823 12.282 86.6143 12.09 87.4423 12.09C88.6303 12.09 89.5603 12.474 90.2323 13.242C90.9043 13.998 91.2403 15.042 91.2403 16.374V16.932H84.6523C84.7003 17.928 84.9883 18.69 85.5163 19.218C86.0443 19.734 86.7763 19.992 87.7123 19.992C88.2403 19.992 88.7443 19.914 89.2243 19.758C89.7043 19.59 90.1603 19.32 90.5923 18.948L91.0963 19.974C90.7003 20.346 90.1963 20.64 89.5843 20.856C88.9723 21.06 88.3483 21.162 87.7123 21.162ZM87.4783 13.17C86.6503 13.17 85.9963 13.428 85.5163 13.944C85.0363 14.46 84.7543 15.138 84.6703 15.978H89.9803C89.9443 15.09 89.7103 14.4 89.2783 13.908C88.8583 13.416 88.2583 13.17 87.4783 13.17Z" fill="black"/>
<defs>
<linearGradient id="paint0_linear" x1="9" y1="5" x2="112" y2="24" gradientUnits="userSpaceOnUse">
<stop stop-color="#5564E7"/>
<stop offset="0.572917" stop-color="#FD6F82"/>
<stop offset="1" stop-color="#FF7D45"/>
</linearGradient>
</defs>
</svg>
