<svg width="20" height="14" viewBox="0 0 20 14" fill="none" xmlns="http://www.w3.org/2000/svg">
<path d="M18.7392 6.34473H0.928202C0.720618 6.34473 0.521537 6.42719 0.374754 6.57398C0.22797 6.72076 0.145508 6.91985 0.145508 7.12743C0.145508 7.33501 0.22797 7.53409 0.374754 7.68087C0.521537 7.82766 0.720618 7.91012 0.928202 7.91012H18.7392C18.9468 7.91012 19.1459 7.82766 19.2927 7.68087C19.4395 7.53409 19.5219 7.33501 19.5219 7.12743C19.5219 6.91985 19.4395 6.72076 19.2927 6.57398C19.1459 6.42719 18.9468 6.34473 18.7392 6.34473Z" fill="white"/>
<path d="M13.6706 0.407436H1.15069C1.03157 0.377323 0.907153 0.374794 0.78691 0.400045C0.666667 0.425296 0.553774 0.477656 0.456831 0.553142C0.359888 0.628627 0.281453 0.725247 0.227502 0.835633C0.173552 0.94602 0.145508 1.06726 0.145508 1.19013C0.145508 1.31299 0.173552 1.43424 0.227502 1.54462C0.281453 1.65501 0.359888 1.75163 0.456831 1.82711C0.553774 1.9026 0.666667 1.95496 0.78691 1.98021C0.907153 2.00546 1.03157 2.00293 1.15069 1.97282H13.6706C13.7897 2.00293 13.9141 2.00546 14.0343 1.98021C14.1546 1.95496 14.2675 1.9026 14.3644 1.82711C14.4614 1.75163 14.5398 1.65501 14.5938 1.54462C14.6477 1.43424 14.6757 1.31299 14.6757 1.19013C14.6757 1.06726 14.6477 0.94602 14.5938 0.835633C14.5398 0.725247 14.4614 0.628627 14.3644 0.553142C14.2675 0.477656 14.1546 0.425296 14.0343 0.400045C13.9141 0.374794 13.7897 0.377323 13.6706 0.407436Z" fill="white"/>
<path d="M9.34021 12.2832H0.640562C0.367689 12.2832 0.146484 12.6336 0.146484 13.0655C0.146484 13.4974 0.367689 13.8478 0.640562 13.8478H9.34021C9.61308 13.8478 9.83429 13.4974 9.83429 13.0655C9.83429 12.6336 9.61308 12.2832 9.34021 12.2832Z" fill="white"/>
</svg>
