<svg width="32" height="32" viewBox="0 0 32 32" fill="none" xmlns="http://www.w3.org/2000/svg">
<path d="M16 0C20.4183 0 24.4183 1.79088 27.3138 4.68634C30.2092 7.5818 32.0001 11.5818 32.0001 16C32.0001 20.4183 30.2092 24.4183 27.3138 27.3138C24.4183 30.2092 20.4183 32.0001 16 32.0001C11.5818 32.0001 7.5818 30.2092 4.68634 27.3138C1.79088 24.4183 0 20.4183 0 16C0 11.5818 1.79088 7.5818 4.68634 4.68634C7.5818 1.79088 11.5818 0 16 0ZM17.584 10.7199H20.2241V7.55175H17.584C15.5464 7.55175 13.8883 9.20977 13.8883 11.2475V12.8315H11.776V16H13.8878V24.4482H17.0561V16H19.6961L20.2241 12.8316H17.0562V11.2476C17.0562 10.9613 17.2979 10.7196 17.5842 10.7196V10.7199L17.584 10.7199ZM26.2363 5.76365C23.6168 3.1441 19.9976 1.52381 16 1.52381C12.0024 1.52381 8.3833 3.1441 5.76375 5.76365C3.1442 8.38321 1.52391 12.0024 1.52391 16C1.52391 19.9976 3.1442 23.6167 5.76375 26.2362C8.3833 28.8558 12.0025 30.4761 16 30.4761C19.9977 30.4761 23.6168 28.8558 26.2363 26.2362C28.8559 23.6167 30.4762 19.9975 30.4762 16C30.4762 12.0023 28.8559 8.38321 26.2363 5.76365Z" fill="#3B5998"/>
</svg>
