<svg width="32" height="32" viewBox="0 0 32 32" fill="none" xmlns="http://www.w3.org/2000/svg">
<path d="M16 0C20.4183 0 24.4183 1.79088 27.3138 4.68634C30.2092 7.5818 32.0001 11.5818 32.0001 16C32.0001 20.4183 30.2092 24.4183 27.3138 27.3138C24.4183 30.2092 20.4183 32.0001 16 32.0001C11.5818 32.0001 7.5818 30.2092 4.68634 27.3138C1.79088 24.4183 0 20.4183 0 16C0 11.5818 1.79088 7.5818 4.68634 4.68634C7.5818 1.79088 11.5818 0 16 0ZM14.235 13.6072H16.795V14.9197L16.8321 14.9198C17.1886 14.2801 18.0603 13.6073 19.3602 13.6073C22.0635 13.6072 22.5635 15.2896 22.5635 17.478V21.9359L19.8936 21.936V17.9842C19.8936 17.0421 19.874 15.8294 18.5055 15.8294C17.1153 15.8294 16.9024 16.8548 16.9024 17.9155V21.936H14.2349V13.6073L14.235 13.6072ZM12.3841 11.2936C12.3841 12.06 11.7622 12.6819 10.9959 12.6819C10.2296 12.6819 9.6074 12.06 9.6074 11.2936C9.6074 10.5273 10.2295 9.90548 10.9959 9.90548C11.7622 9.90548 12.3841 10.5274 12.3841 11.2936ZM9.6074 13.6072H12.3841V21.9359H9.6074V13.6072ZM26.2363 5.76375C23.6168 3.1442 19.9976 1.52391 16 1.52391C12.0024 1.52391 8.3833 3.1442 5.76375 5.76375C3.1442 8.3833 1.52391 12.0025 1.52391 16C1.52391 19.9977 3.1442 23.6168 5.76375 26.2363C8.3833 28.8559 12.0025 30.4762 16 30.4762C19.9977 30.4762 23.6168 28.8559 26.2363 26.2363C28.8559 23.6168 30.4762 19.9976 30.4762 16C30.4762 12.0024 28.8559 8.3833 26.2363 5.76375Z" fill="#0077B5"/>
</svg>
