<svg width="32" height="32" viewBox="0 0 32 32" fill="none" xmlns="http://www.w3.org/2000/svg">
<path d="M16 0C20.4183 0 24.4183 1.79088 27.3138 4.68634C30.2092 7.5818 32.0001 11.5818 32.0001 16C32.0001 20.4183 30.2092 24.4183 27.3138 27.3138C24.4183 30.2092 20.4183 32.0001 16 32.0001C11.5818 32.0001 7.5818 30.2092 4.68634 27.3138C1.79088 24.4183 0 20.4183 0 16C0 11.5818 1.79088 7.5818 4.68634 4.68634C7.5818 1.79088 11.5818 0 16 0ZM12.1705 16.9588C12.1705 16.4301 12.5994 16.0012 13.128 16.0012C13.6567 16.0012 14.0853 16.4301 14.0853 16.9588C14.0853 17.4875 13.6567 17.9163 13.128 17.9163C12.5993 17.9163 12.1705 17.4874 12.1705 16.9588ZM17.9153 16.9588C17.9153 16.4301 18.3443 16.0012 18.8729 16.0012C19.4015 16.0012 19.8305 16.4301 19.8305 16.9588C19.8305 17.4875 19.4016 17.9163 18.8729 17.9163C18.3442 17.9163 17.9153 17.4874 17.9153 16.9588ZM17.962 19.0049C18.2091 18.8106 18.5664 18.8525 18.7607 19.0996C18.9549 19.3467 18.9132 19.704 18.6661 19.8982C17.9795 20.4394 16.9329 20.7889 16.0014 20.7889C15.0701 20.7889 14.0234 20.4394 13.3358 19.8982C13.0887 19.704 13.0468 19.3466 13.241 19.0996C13.4352 18.8525 13.7926 18.8106 14.0397 19.0049C14.4352 19.3162 15.2174 19.6512 16.0013 19.6512C16.7856 19.6512 17.5679 19.3162 17.9632 19.0049H17.9621H17.962ZM23.6602 15.0438C23.6602 13.9856 22.8033 13.1286 21.7453 13.1286C21.0252 13.1286 20.399 13.5261 20.0715 14.1131C19.0873 13.575 17.8882 13.2264 16.5815 13.1461L17.7236 10.5801L19.9103 11.2111C20.1076 11.7695 20.6389 12.1704 21.2654 12.1704C22.0582 12.1704 22.7016 11.5269 22.7016 10.7342C22.7016 9.94129 22.058 9.2979 21.2654 9.2979C20.7185 9.2979 20.2425 9.60327 20.0004 10.0536L17.5635 9.34964C17.2906 9.27102 17.0015 9.40513 16.8863 9.66462L15.3342 13.1504C14.0607 13.2406 12.8917 13.5844 11.9287 14.1117C11.601 13.5247 10.975 13.1272 10.2549 13.1272C9.19662 13.1272 8.34001 13.9842 8.34001 15.0424C8.34001 15.8248 8.80993 16.498 9.48193 16.7945C9.36145 17.1536 9.29703 17.5288 9.29703 17.9149C9.29703 20.5584 12.2976 22.7021 15.9995 22.7021C19.7012 22.7021 22.7019 20.5584 22.7019 17.9149C22.7019 17.5289 22.6377 17.1538 22.517 16.7945C23.1903 16.498 23.6589 15.8248 23.6589 15.0424L23.66 15.0439L23.6603 15.0438H23.6602ZM21.2663 10.1972C21.5643 10.1972 21.8058 10.4385 21.8058 10.7364C21.8058 11.0342 21.5643 11.2755 21.2663 11.2755C20.9685 11.2755 20.7272 11.0341 20.7272 10.7364C20.7272 10.4383 20.9686 10.1972 21.2663 10.1972ZM9.29809 15.0438C9.29809 14.5163 9.72788 14.0862 10.2554 14.0862C10.6376 14.0862 10.9671 14.3102 11.1211 14.6347C10.6201 15.0141 10.206 15.4527 9.89943 15.9322C9.54692 15.7902 9.29809 15.4459 9.29809 15.0438V15.0437V15.0438ZM16.0005 21.567C12.9269 21.567 10.4346 19.9328 10.4346 17.916C10.4346 15.8993 12.9257 14.2648 16.0005 14.2648C19.0738 14.2648 21.566 15.8993 21.566 17.916C21.566 19.9328 19.0749 21.5669 16.0005 21.5669V21.567ZM22.1013 15.9322C21.7949 15.4515 21.3807 15.0141 20.8796 14.6347C21.0337 14.3113 21.3631 14.0862 21.7455 14.0862C22.273 14.0862 22.703 14.5163 22.703 15.0439C22.703 15.4459 22.4539 15.7909 22.1013 15.9323V15.9322ZM26.2365 5.76365C23.617 3.1441 19.9978 1.52381 16.0002 1.52381C12.0026 1.52381 8.3835 3.1441 5.76394 5.76365C3.14439 8.38321 1.5241 12.0024 1.5241 16C1.5241 19.9976 3.14439 23.6167 5.76394 26.2362C8.3835 28.8558 12.0027 30.4761 16.0002 30.4761C19.9979 30.4761 23.617 28.8558 26.2365 26.2362C28.8561 23.6167 30.4764 19.9975 30.4764 16C30.4764 12.0023 28.8561 8.38321 26.2365 5.76365Z" fill="#FF4500"/>
</svg>
