<svg width="32" height="32" viewBox="0 0 32 32" fill="none" xmlns="http://www.w3.org/2000/svg">
<path d="M16 0C20.4183 0 24.4183 1.79088 27.3138 4.68634C30.2092 7.5818 32.0001 11.5818 32.0001 16C32.0001 20.4183 30.2092 24.4183 27.3138 27.3138C24.4183 30.2092 20.4183 32.0001 16 32.0001C11.5818 32.0001 7.5818 30.2092 4.68634 27.3138C1.79088 24.4183 0 20.4183 0 16C0 11.5818 1.79088 7.5818 4.68634 4.68634C7.5818 1.79088 11.5818 0 16 0ZM23.4136 11.4018C22.8685 11.6456 22.2812 11.8075 21.6681 11.8798C22.2963 11.5036 22.7768 10.9073 23.006 10.1975C22.4188 10.5447 21.7663 10.7994 21.0748 10.9358C20.5188 10.345 19.7291 9.97777 18.8542 9.97777C17.1745 9.97777 15.8145 11.3386 15.8145 13.0172C15.8145 13.2542 15.8408 13.4859 15.8922 13.7095C13.3647 13.5813 11.1239 12.3713 9.62401 10.5304C9.35492 10.9946 9.21255 11.5224 9.21255 12.0591V12.0595C9.21255 13.1136 9.74766 14.0459 10.5643 14.5895C10.066 14.5747 9.59732 14.4357 9.18577 14.2106V14.2486C9.18577 15.7227 10.2335 16.9527 11.6257 17.2307C11.3706 17.3 11.1015 17.3382 10.824 17.3382C10.6276 17.3382 10.4382 17.3179 10.2499 17.2838C10.6387 18.491 11.7613 19.3711 13.0905 19.3966C12.0482 20.2132 10.7392 20.6993 9.3122 20.6993C9.06586 20.6993 8.82596 20.6843 8.58634 20.6556C9.93534 21.5211 11.5334 22.0224 13.25 22.0224C18.8431 22.0224 21.9041 17.3874 21.9041 13.3686C21.9041 13.2351 21.9012 13.1056 21.8956 12.9748C22.4897 12.5499 23.0046 12.0135 23.4123 11.4031L23.4137 11.4016L23.4135 11.4018H23.4136ZM26.2364 5.76365C23.6169 3.1441 19.9977 1.52381 16.0001 1.52381C12.0025 1.52381 8.3834 3.1441 5.76385 5.76365C3.14429 8.38321 1.524 12.0024 1.524 16C1.524 19.9976 3.14429 23.6167 5.76385 26.2362C8.3834 28.8558 12.0026 30.4761 16.0001 30.4761C19.9978 30.4761 23.6169 28.8558 26.2364 26.2362C28.856 23.6167 30.4763 19.9975 30.4763 16C30.4763 12.0023 28.856 8.38321 26.2364 5.76365Z" fill="#1DA1F2"/>
</svg>
