<svg width="32" height="32" viewBox="0 0 32 32" fill="none" xmlns="http://www.w3.org/2000/svg">
<path fill-rule="evenodd" clip-rule="evenodd" d="M12.4623 7.70391H19.5381C22.1952 7.70391 24.3682 9.84999 24.3682 12.4718V19.5283C24.3682 22.1508 22.1952 24.296 19.5381 24.296H12.4623C9.80507 24.296 7.63191 22.1506 7.63191 19.5283V12.4716C7.63191 9.84999 9.80516 7.70391 12.4623 7.70391ZM16 0C20.4184 0 24.4184 1.79098 27.3138 4.68634C30.209 7.5817 32.0001 11.5817 32.0001 16C32.0001 20.418 30.2091 24.4182 27.3138 27.3136C24.4183 30.2088 20.4181 31.9999 16 31.9999C11.5821 31.9999 7.5819 30.2088 4.68634 27.3136C1.79107 24.4182 0 20.418 0 16C0 11.5821 1.79098 7.5819 4.68634 4.68634C7.5818 1.79107 11.582 0 16 0ZM26.0728 5.92724C23.4953 3.34973 19.9337 1.75517 16 1.75517C12.0665 1.75517 8.50494 3.34973 5.92733 5.92724C3.34983 8.50484 1.75527 12.0664 1.75527 16C1.75527 19.9337 3.34983 23.4951 5.92733 26.0726C8.50494 28.6501 12.0665 30.2446 16 30.2446C19.9336 30.2446 23.4952 28.6501 26.0728 26.0726C28.6503 23.4951 30.2448 19.9337 30.2448 16C30.2448 12.0663 28.6503 8.50465 26.0728 5.92724ZM15.9549 11.5202C18.5369 11.5202 20.6323 13.6155 20.6323 16.1977C20.6323 18.7801 18.5369 20.8751 15.9549 20.8751C13.3721 20.8751 11.2771 18.7801 11.2771 16.1977C11.2771 13.6155 13.3721 11.5202 15.9549 11.5202ZM15.9549 13.1001C17.6648 13.1001 19.0526 14.4876 19.0526 16.1977C19.0526 17.908 17.6648 19.2957 15.9549 19.2957C14.2445 19.2957 12.857 17.908 12.857 16.1977C12.857 14.4876 14.2445 13.1001 15.9549 13.1001ZM20.4803 10.872C20.8996 10.872 21.2397 11.212 21.2397 11.6312C21.2397 12.0506 20.8996 12.3906 20.4803 12.3906C20.061 12.3906 19.7211 12.0506 19.7211 11.6312C19.7211 11.2119 20.0611 10.872 20.4803 10.872ZM13.0405 9.05924H18.9605C21.1835 9.05924 23.0015 10.8682 23.0015 13.079V19.0286C23.0015 21.2392 21.1836 23.0478 18.9605 23.0478L13.0405 23.048C10.8177 23.048 8.99934 21.2393 8.99934 19.0288V13.0789C8.99934 10.8683 10.8177 9.05934 13.0405 9.05934V9.05924Z" fill="url(#paint0_linear)"/>
<defs>
<linearGradient id="paint0_linear" x1="12.1885" y1="31.0728" x2="19.8115" y2="0.92693" gradientUnits="userSpaceOnUse">
<stop stop-color="#F58529"/>
<stop offset="0.129" stop-color="#FEDA77"/>
<stop offset="0.431" stop-color="#DD2A7B"/>
<stop offset="0.741" stop-color="#8134AF"/>
<stop offset="1" stop-color="#515BD4"/>
</linearGradient>
</defs>
</svg>
