<svg width="20" height="20" viewBox="0 0 20 20" fill="none" xmlns="http://www.w3.org/2000/svg">
<path d="M17.1423 12.8574C18.7203 12.8574 19.9994 11.5782 19.9994 10.0002C19.9994 8.42225 18.7203 7.14307 17.1423 7.14307C15.5643 7.14307 14.2852 8.42225 14.2852 10.0002C14.2852 11.5782 15.5643 12.8574 17.1423 12.8574Z" fill="#5564E7"/>
<path d="M14.2857 20.0001H12.8571V16.4287C12.8571 15.4815 12.4809 14.5731 11.8111 13.9033C11.1413 13.2336 10.2329 12.8573 9.28571 12.8573H5C4.0528 12.8573 3.14439 13.2336 2.47462 13.9033C1.80485 14.5731 1.42857 15.4815 1.42857 16.4287V20.0001H0V16.4287C0 15.1026 0.526784 13.8309 1.46447 12.8932C2.40215 11.9555 3.67392 11.4287 5 11.4287H9.28571C10.6118 11.4287 11.8836 11.9555 12.8212 12.8932C13.7589 13.8309 14.2857 15.1026 14.2857 16.4287V20.0001Z" fill="#5564E7"/>
<path d="M7.14258 1.42857C7.84894 1.42857 8.53944 1.63803 9.12676 2.03047C9.71408 2.4229 10.1718 2.98068 10.4422 3.63327C10.7125 4.28587 10.7832 5.00396 10.6454 5.69675C10.5076 6.38954 10.1674 7.02591 9.66796 7.52538C9.16849 8.02485 8.53212 8.365 7.83933 8.5028C7.14654 8.64061 6.42845 8.56988 5.77585 8.29957C5.12326 8.02926 4.56548 7.5715 4.17305 6.98418C3.78061 6.39686 3.57115 5.70636 3.57115 5C3.57115 4.0528 3.94743 3.14439 4.6172 2.47462C5.28697 1.80485 6.19538 1.42857 7.14258 1.42857ZM7.14258 0C6.15367 0 5.18698 0.293245 4.36473 0.842652C3.54248 1.39206 2.90162 2.17295 2.52318 3.08658C2.14474 4.00021 2.04573 5.00555 2.23865 5.97545C2.43158 6.94536 2.90778 7.83627 3.60705 8.53553C4.30631 9.2348 5.19722 9.711 6.16713 9.90393C7.13703 10.0969 8.14237 9.99784 9.056 9.6194C9.96963 9.24096 10.7505 8.6001 11.2999 7.77785C11.8493 6.95561 12.1426 5.98891 12.1426 5C12.1426 3.67392 11.6158 2.40215 10.6781 1.46447C9.74043 0.526784 8.46866 0 7.14258 0Z" fill="#5564E7"/>
</svg>
