<svg width="20" height="21" viewBox="0 0 20 21" fill="none" xmlns="http://www.w3.org/2000/svg">
<path d="M2.33337 20.3598H17.6667C17.8508 20.3598 18 20.2106 18 20.0265V13.4708L19.9333 10.8932C20.0091 10.7923 20.0214 10.657 19.9649 10.5441C19.9084 10.4313 19.793 10.3598 19.6667 10.3598H12C11.8951 10.3598 11.7963 10.4093 11.7334 10.4933L10 12.8045L8.26663 10.4933C8.20381 10.4093 8.10501 10.3598 8.00003 10.3598V9.69316H8.33337C8.51745 9.69316 8.6667 9.54391 8.6667 9.35983V7.35983C8.6667 7.17575 8.51745 7.02649 8.33337 7.02649V6.39922L12.0261 8.24557C12.1408 8.73922 12.6066 9.06898 13.1104 9.01299C13.614 8.95716 13.9963 8.53333 14 8.0265V5.95325L15.0808 5.68323C15.2292 5.64612 15.3334 5.51282 15.3334 5.35983V4.02649C15.3334 3.8735 15.2292 3.7402 15.0808 3.70325L14 3.43323V1.35983C13.9963 0.853154 13.614 0.429326 13.1104 0.373337C12.6066 0.31751 12.1408 0.647262 12.0261 1.14091L8.25475 3.02649H6.33337C5.41296 3.02649 4.6667 3.77275 4.6667 4.69316C4.6667 5.61373 5.41296 6.35983 6.33337 6.35983V7.02649H5.6667C5.48262 7.02649 5.33337 7.17575 5.33337 7.35983V10.3598H0.333366C0.207064 10.3598 0.091667 10.4313 0.0351891 10.5441C-0.0212888 10.657 -0.00908174 10.7923 0.0667646 10.8932L2.00003 13.4708V20.0265C2.00003 20.2106 2.14928 20.3598 2.33337 20.3598ZM2.6667 13.6932H9.6667V19.6932H2.6667V13.6932ZM17.3334 19.6932H10.3334V13.6932H17.3334V19.6932ZM12.1667 11.0265H19L17.5 13.0265H10.6667L12.1667 11.0265ZM14.6667 4.28691V5.09957L14 5.26624V4.12024L14.6667 4.28691ZM13 1.02649C13.1841 1.02649 13.3334 1.17575 13.3334 1.35983V8.0265C13.3334 8.21058 13.1841 8.35983 13 8.35983C12.816 8.35983 12.6667 8.21058 12.6667 8.0265V1.35983C12.6667 1.17575 12.816 1.02649 13 1.02649ZM12 7.48727L8.6667 5.8206V3.56588L12 1.89922V7.48727ZM5.33337 4.69316C5.33337 4.14092 5.78112 3.69316 6.33337 3.69316H8.00003V5.69316H6.33337C5.78112 5.69316 5.33337 5.24557 5.33337 4.69316ZM7.00003 6.35983H7.6667V7.02649H7.00003V6.35983ZM6.00003 7.69316H8.00003V9.02649H6.00003V7.69316ZM6.00003 9.69316H7.33337V10.3598H6.00003V9.69316ZM7.83337 11.0265L9.33337 13.0265H2.50003L1.00003 11.0265H7.83337Z" fill="#979797"/>
</svg>
