<svg width="18" height="20" viewBox="0 0 18 20" fill="none" xmlns="http://www.w3.org/2000/svg">
<path d="M8.59649 0L0 2.85714V11.4286C0 16.1629 3.84827 20 8.59649 20C13.3447 20 17.193 16.1629 17.193 11.4286V2.85714L8.59649 0ZM15.5811 11.4286C15.5811 15.2746 12.4537 18.3929 8.59649 18.3929C4.73926 18.3929 1.61184 15.2746 1.61184 11.4286V4.0625L8.59649 1.60714L15.5811 4.0625V11.4286Z" fill="#5564E7"/>
<path d="M5.58566 9.20563C5.51104 9.13371 5.42236 9.07664 5.32469 9.0377C5.22703 8.99875 5.12231 8.97871 5.01655 8.97871C4.91078 8.97871 4.80606 8.99875 4.7084 9.0377C4.61073 9.07664 4.52205 9.13371 4.44743 9.20563C4.37248 9.27722 4.313 9.36232 4.27241 9.45603C4.23183 9.54974 4.21094 9.65022 4.21094 9.7517C4.21094 9.85318 4.23183 9.95366 4.27241 10.0474C4.313 10.1411 4.37248 10.2262 4.44743 10.2978L7.34108 13.0743L7.38804 13.1193C7.45861 13.1872 7.54244 13.241 7.63473 13.2777C7.72701 13.3145 7.82594 13.3334 7.92584 13.3334C8.02575 13.3334 8.12467 13.3145 8.21696 13.2777C8.30924 13.241 8.39307 13.1872 8.46365 13.1193L13.4616 8.32376C13.5323 8.25604 13.5884 8.1756 13.6266 8.08705C13.6649 7.99851 13.6846 7.90358 13.6846 7.80772C13.6846 7.71186 13.6649 7.61694 13.6266 7.52839C13.5884 7.43985 13.5323 7.35941 13.4616 7.29169L13.3989 7.23161C13.3284 7.16376 13.2445 7.10993 13.1523 7.07321C13.06 7.03648 12.961 7.01758 12.8611 7.01758C12.7612 7.01758 12.6623 7.03648 12.57 7.07321C12.4777 7.10993 12.3939 7.16376 12.3233 7.23161L7.92472 11.45L5.58566 9.20563Z" fill="#5564E7"/>
</svg>
