<svg width="10" height="14" viewBox="0 0 10 14" fill="none" xmlns="http://www.w3.org/2000/svg">
<path d="M0.342504 6.81648L4.56125 0.488387C4.56139 0.488176 4.56157 0.487965 4.56171 0.487719C4.56322 0.485469 4.56488 0.483324 4.56642 0.481109C4.57366 0.470598 4.58129 0.460473 4.58924 0.450594C4.81146 0.174476 5.2346 0.193109 5.43359 0.481109C5.43513 0.483324 5.43679 0.485469 5.4383 0.487719C5.43844 0.487965 5.43861 0.488141 5.43875 0.488387L9.6575 6.81652C9.79697 7.02566 9.76937 7.30417 9.59162 7.48192C8.5395 8.53404 7.86984 9.90935 7.68742 11.3808C7.7693 11.447 7.84836 11.5179 7.92332 11.5946C8.41863 12.1012 8.69141 12.7681 8.69141 13.4723C8.69141 13.7635 8.4553 13.9996 8.16407 13.9996H1.83594C1.54471 13.9996 1.3086 13.7635 1.3086 13.4723C1.3086 12.7681 1.58138 12.1012 2.07666 11.5945C2.15164 11.5178 2.23068 11.4469 2.31259 11.3807C2.1302 9.90925 1.46054 8.53394 0.408422 7.48192C0.230637 7.30417 0.203039 7.02563 0.342504 6.81648ZM5 6.58167C4.70923 6.58167 4.47266 6.81824 4.47266 7.10902C4.47266 7.39979 4.70923 7.63636 5 7.63636C5.29078 7.63636 5.52735 7.39979 5.52735 7.10902C5.52735 6.81824 5.29078 6.58167 5 6.58167ZM7.54679 12.945C7.32738 12.318 6.73261 11.8551 6.05469 11.8551H3.94532C3.2674 11.8551 2.67263 12.318 2.45322 12.945H7.54679ZM3.30389 10.8807C3.51131 10.8277 3.72633 10.8004 3.94532 10.8004H6.05469C6.27368 10.8004 6.4887 10.8277 6.69612 10.8807C6.94291 9.45939 7.58385 8.13076 8.54709 7.05224L5.52735 2.5226V5.61772C6.14114 5.83541 6.58204 6.42157 6.58204 7.10905C6.58204 7.98138 5.87234 8.69108 5 8.69108C4.12767 8.69108 3.41797 7.98138 3.41797 7.10905C3.41797 6.42157 3.85887 5.83541 4.47266 5.61772V2.5226L1.45288 7.05224C2.41616 8.13066 3.05713 9.45932 3.30389 10.8807Z" fill="#979797"/>
</svg>
