<svg width="17" height="17" viewBox="0 0 17 17" fill="none" xmlns="http://www.w3.org/2000/svg">
<path d="M4.167 14.3438H4.83328C4.94972 14.6703 5.25909 14.9062 5.62528 14.9062C6.09047 14.9062 6.46903 14.5277 6.46903 14.0625C6.46903 13.5973 6.09047 13.2188 5.62528 13.2188C5.25909 13.2188 4.94972 13.4547 4.83328 13.7812H4.167C4.05056 13.4547 3.74119 13.2188 3.375 13.2188C2.90981 13.2188 2.53125 13.5973 2.53125 14.0625C2.53125 14.5277 2.90981 14.9062 3.375 14.9062C3.74119 14.9062 4.05056 14.6703 4.167 14.3438ZM5.625 13.7812C5.77997 13.7812 5.90625 13.9072 5.90625 14.0625C5.90625 14.2178 5.77997 14.3438 5.625 14.3438C5.47003 14.3438 5.34375 14.2178 5.34375 14.0625C5.34375 13.9072 5.47003 13.7812 5.625 13.7812ZM3.09375 14.0625C3.09375 13.9072 3.22003 13.7812 3.375 13.7812C3.52997 13.7812 3.65625 13.9072 3.65625 14.0625C3.65625 14.2178 3.52997 14.3438 3.375 14.3438C3.22003 14.3438 3.09375 14.2178 3.09375 14.0625Z" fill="#5564E7"/>
<path d="M13.833 13.2188C13.9494 13.5453 14.2588 13.7812 14.625 13.7812C15.0902 13.7812 15.4688 13.4027 15.4688 12.9375C15.4688 12.4723 15.0902 12.0938 14.625 12.0938C14.2588 12.0938 13.9494 12.3297 13.833 12.6562H12.0938C11.9385 12.6562 11.8125 12.782 11.8125 12.9375V14.3955C11.486 14.5119 11.25 14.8213 11.25 15.1875C11.25 15.6527 11.6286 16.0312 12.0938 16.0312C12.5589 16.0312 12.9375 15.6527 12.9375 15.1875C12.9375 14.8213 12.7015 14.5119 12.375 14.3955V13.2188H13.833ZM14.625 12.6562C14.78 12.6562 14.9062 12.7822 14.9062 12.9375C14.9062 13.0928 14.78 13.2188 14.625 13.2188C14.47 13.2188 14.3438 13.0928 14.3438 12.9375C14.3438 12.7822 14.47 12.6562 14.625 12.6562ZM12.0938 15.4688C11.9388 15.4688 11.8125 15.3428 11.8125 15.1875C11.8125 15.0322 11.9388 14.9062 12.0938 14.9062C12.2487 14.9062 12.375 15.0322 12.375 15.1875C12.375 15.3428 12.2487 15.4688 12.0938 15.4688Z" fill="#5564E7"/>
<path d="M8.4375 0C3.78506 0 0 3.78506 0 8.4375C0 8.59303 0.126 8.71875 0.28125 8.71875H4.21875V9.61425C3.98053 9.69919 3.79294 9.88678 3.708 10.125H2.36644L1.60509 9.36366C1.5525 9.31078 1.48078 9.28125 1.40625 9.28125H0.28125V9.84375H1.28981L2.05116 10.6051C2.10375 10.658 2.17547 10.6875 2.25 10.6875H3.708C3.79294 10.9257 3.98053 11.1133 4.21875 11.1983V11.8125H2.4795C2.36306 11.486 2.05369 11.25 1.6875 11.25C1.22231 11.25 0.84375 11.6286 0.84375 12.0938C0.84375 12.5589 1.22231 12.9375 1.6875 12.9375C2.05369 12.9375 2.36306 12.7015 2.4795 12.375H4.5C4.65525 12.375 4.78125 12.2493 4.78125 12.0938V11.1983C5.10778 11.0818 5.34375 10.7724 5.34375 10.4062C5.34375 10.0401 5.10778 9.73069 4.78125 9.61425V8.71875H5.90625V11.8125C5.90625 11.8873 5.93578 11.9587 5.98866 12.0113L7.03125 13.0539V15.2392C6.70472 15.3557 6.46875 15.6651 6.46875 16.0312C6.46875 16.4964 6.84731 16.875 7.3125 16.875C7.77769 16.875 8.15625 16.4964 8.15625 16.0312C8.15625 15.6651 7.92028 15.3557 7.59375 15.2392V13.0539L8.07384 12.5738C8.12672 12.5212 8.15625 12.4498 8.15625 12.375V10.917C8.48278 10.8006 8.71875 10.4912 8.71875 10.125C8.71875 9.75881 8.48278 9.44944 8.15625 9.333V8.71875H10.8523L10.2074 9.36366C10.1545 9.41625 10.125 9.48769 10.125 9.5625V10.1767C9.79847 10.2932 9.5625 10.6026 9.5625 10.9688C9.5625 11.3349 9.79847 11.6443 10.125 11.7608V12.5398L9.64491 13.0199C9.59203 13.0725 9.5625 13.1439 9.5625 13.2188V14.958C9.23597 15.0744 9 15.3838 9 15.75C9 16.2152 9.37856 16.5938 9.84375 16.5938C10.3089 16.5938 10.6875 16.2152 10.6875 15.75C10.6875 15.3838 10.4515 15.0744 10.125 14.958V13.3352L10.6051 12.8551C10.658 12.8025 10.6875 12.7311 10.6875 12.6562V11.7608C10.9257 11.6758 11.1133 11.4882 11.1983 11.25H12.6562C12.7308 11.25 12.8025 11.2205 12.8551 11.1676L13.6164 10.4062H14.958C15.0744 10.7328 15.3838 10.9688 15.75 10.9688C16.2152 10.9688 16.5938 10.5902 16.5938 10.125C16.5938 9.75881 16.3578 9.44944 16.0312 9.333V8.71875H16.5938C16.749 8.71875 16.875 8.59303 16.875 8.4375C16.875 3.78506 13.0899 0 8.4375 0ZM1.6875 12.375C1.53253 12.375 1.40625 12.249 1.40625 12.0938C1.40625 11.9385 1.53253 11.8125 1.6875 11.8125C1.84247 11.8125 1.96875 11.9385 1.96875 12.0938C1.96875 12.249 1.84247 12.375 1.6875 12.375ZM4.5 10.6875C4.34503 10.6875 4.21875 10.5615 4.21875 10.4062C4.21875 10.251 4.34503 10.125 4.5 10.125C4.65497 10.125 4.78125 10.251 4.78125 10.4062C4.78125 10.5615 4.65497 10.6875 4.5 10.6875ZM9.84375 16.0312C9.68878 16.0312 9.5625 15.9052 9.5625 15.75C9.5625 15.5948 9.68878 15.4688 9.84375 15.4688C9.99872 15.4688 10.125 15.5948 10.125 15.75C10.125 15.9052 9.99872 16.0312 9.84375 16.0312ZM15.257 4.50337C14.8148 4.67831 14.3331 4.83441 13.8201 4.97109C13.5776 4.20525 13.2576 3.50044 12.8739 2.87662C13.1805 2.79872 13.4671 2.71181 13.7346 2.61759C14.3333 3.16322 14.8486 3.79828 15.257 4.50337ZM10.9668 8.15625C10.9598 7.45566 10.9271 6.75112 10.8692 6.06459C11.7672 5.97347 12.6307 5.83256 13.4333 5.64666C13.6358 6.43134 13.7551 7.27537 13.7762 8.15625H10.9668ZM9.75741 2.76975C9.32597 2.79647 8.88553 2.8125 8.4375 2.8125C7.98947 2.8125 7.54903 2.79647 7.11759 2.76975C7.51106 1.34916 8.01675 0.5625 8.4375 0.5625C8.85825 0.5625 9.36394 1.34916 9.75741 2.76975ZM9.51159 0.722531C10.4313 1.00012 11.2649 1.629 11.9472 2.50678C11.4412 2.60212 10.8968 2.67412 10.33 2.72559C10.1112 1.89647 9.83784 1.20262 9.51159 0.722531ZM9.89775 3.32522C10.046 3.969 10.1717 4.71459 10.2608 5.55441C9.66347 5.60025 9.05344 5.625 8.4375 5.625C7.82156 5.625 7.21153 5.60025 6.61444 5.55441C6.70359 4.71459 6.82931 3.969 6.97753 3.32522C7.45397 3.35728 7.94222 3.375 8.4375 3.375C8.93278 3.375 9.42103 3.35728 9.89775 3.32522ZM6.54497 2.72531C5.97825 2.67384 5.43375 2.60184 4.92778 2.5065C5.61009 1.62844 6.44344 0.999844 7.36341 0.72225C7.03716 1.20262 6.76378 1.89647 6.54497 2.72531ZM6.41166 3.27769C6.26063 3.96169 6.14306 4.71656 6.05925 5.50519C5.19609 5.41772 4.36725 5.28328 3.59719 5.10609C3.84441 4.32872 4.17572 3.62109 4.57312 3.00713C5.14406 3.12525 5.76197 3.21581 6.41166 3.27769ZM6.00553 6.06459C5.94759 6.75112 5.91497 7.45566 5.90794 8.15625H3.09825C3.11934 7.27566 3.23859 6.43134 3.44109 5.64666C4.24406 5.83284 5.1075 5.97347 6.00553 6.06459ZM6.56213 6.11409C7.17694 6.16191 7.80441 6.1875 8.4375 6.1875C9.07059 6.1875 9.69806 6.16191 10.3129 6.11409C10.3655 6.74888 10.3975 7.43062 10.404 8.15625H6.47072C6.47747 7.43091 6.50953 6.74888 6.56213 6.11409ZM10.816 5.50519C10.7322 4.71656 10.6147 3.96169 10.4636 3.27769C11.113 3.21581 11.7312 3.12525 12.3022 3.00741C12.6996 3.62166 13.0309 4.32928 13.2781 5.10638C12.508 5.28328 11.6792 5.41772 10.816 5.50519ZM13.2297 2.19516C13.0129 2.26209 12.7831 2.32369 12.5429 2.3805C12.1987 1.90406 11.8142 1.48753 11.3974 1.14103C12.0577 1.40963 12.6728 1.76625 13.2297 2.19516ZM4.33181 2.38022C4.09163 2.32341 3.86212 2.26181 3.645 2.19488C4.20216 1.76625 4.81697 1.40934 5.47734 1.14075C5.06053 1.48725 4.67606 1.90406 4.33181 2.38022ZM3.14044 2.61787C3.40791 2.71209 3.69422 2.799 4.00106 2.87691C3.61744 3.50072 3.29738 4.20553 3.05494 4.97137C2.54222 4.83469 2.06016 4.67859 1.61803 4.50366C2.02641 3.79828 2.54166 3.16322 3.14044 2.61787ZM1.35394 5.00316C1.82784 5.19384 2.34562 5.36344 2.898 5.51109C2.68284 6.33966 2.55741 7.22953 2.53603 8.15653H0.567281C0.607219 7.029 0.887063 5.9625 1.35394 5.00316ZM7.3125 16.3125C7.15753 16.3125 7.03125 16.1865 7.03125 16.0312C7.03125 15.876 7.15753 15.75 7.3125 15.75C7.46747 15.75 7.59375 15.876 7.59375 16.0312C7.59375 16.1865 7.46747 16.3125 7.3125 16.3125ZM7.875 10.4062C7.72003 10.4062 7.59375 10.2802 7.59375 10.125C7.59375 9.96975 7.72003 9.84375 7.875 9.84375C8.02997 9.84375 8.15625 9.96975 8.15625 10.125C8.15625 10.2802 8.02997 10.4062 7.875 10.4062ZM7.59375 9.333C7.26722 9.44944 7.03125 9.75881 7.03125 10.125C7.03125 10.4912 7.26722 10.8006 7.59375 10.917V12.2586L7.3125 12.5398L6.46875 11.6961V8.71875H7.59375V9.333ZM10.4062 11.25C10.2513 11.25 10.125 11.124 10.125 10.9688C10.125 10.8135 10.2513 10.6875 10.4062 10.6875C10.5612 10.6875 10.6875 10.8135 10.6875 10.9688C10.6875 11.124 10.5612 11.25 10.4062 11.25ZM15.75 10.4062C15.595 10.4062 15.4688 10.2802 15.4688 10.125C15.4688 9.96975 15.595 9.84375 15.75 9.84375C15.905 9.84375 16.0312 9.96975 16.0312 10.125C16.0312 10.2802 15.905 10.4062 15.75 10.4062ZM15.4688 9.333C15.2305 9.41794 15.0429 9.60553 14.958 9.84375H13.5C13.4255 9.84375 13.3538 9.87328 13.3012 9.92616L12.5398 10.6875H11.1983C11.1133 10.4493 10.9257 10.2617 10.6875 10.1767V9.67894L11.6477 8.71875H15.4688V9.333ZM14.3387 8.15625C14.3173 7.22925 14.1919 6.33938 13.9767 5.51081C14.5291 5.36344 15.0469 5.19356 15.5208 5.00287C15.9879 5.9625 16.2678 7.029 16.3074 8.15625H14.3387Z" fill="#5564E7"/>
</svg>
