<svg width="17" height="17" viewBox="0 0 17 17" fill="none" xmlns="http://www.w3.org/2000/svg">
<path d="M9.16738 10.8044L8.16844 10.0146C8.13074 9.98441 8.08743 9.96195 8.04101 9.94854C7.99458 9.93513 7.94597 9.93103 7.89796 9.93649C7.84995 9.94195 7.80349 9.95685 7.76126 9.98034C7.71903 10.0038 7.68187 10.0354 7.65191 10.0733C7.62195 10.1113 7.59979 10.1547 7.5867 10.2012C7.57361 10.2477 7.56985 10.2964 7.57564 10.3444C7.58142 10.3923 7.59665 10.4387 7.62043 10.4808C7.64421 10.5228 7.67607 10.5598 7.71419 10.5895L7.75208 10.6194C7.37623 10.501 7.03724 10.2877 6.76782 10.0002C6.49839 9.71264 6.30762 9.36051 6.21391 8.97776C6.1202 8.59501 6.12672 8.19457 6.23283 7.81508C6.33894 7.43558 6.54107 7.08984 6.81971 6.81121C6.88643 6.7421 6.92333 6.64956 6.92248 6.55351C6.92162 6.45745 6.88308 6.36558 6.81514 6.29767C6.74721 6.22977 6.65532 6.19126 6.55927 6.19044C6.46322 6.18963 6.37069 6.22657 6.30161 6.29332C5.90879 6.68607 5.63178 7.17947 5.501 7.71934C5.37021 8.25921 5.39071 8.82467 5.56024 9.35366C5.72977 9.88264 6.04177 10.3547 6.462 10.718C6.88223 11.0813 7.39442 11.3217 7.94236 11.413L7.71377 11.5936C7.67565 11.6233 7.64379 11.6603 7.62001 11.7023C7.59623 11.7444 7.58101 11.7908 7.57522 11.8387C7.56943 11.8867 7.57319 11.9353 7.58628 11.9819C7.59937 12.0284 7.62153 12.0718 7.65149 12.1097C7.68145 12.1477 7.71861 12.1793 7.76084 12.2028C7.80307 12.2262 7.84953 12.2411 7.89754 12.2466C7.94555 12.2521 7.99416 12.248 8.04059 12.2346C8.08701 12.2211 8.13032 12.1987 8.16802 12.1685L9.16738 11.3786C9.21077 11.3444 9.24583 11.3007 9.26994 11.2509C9.29405 11.2011 9.30657 11.1465 9.30657 11.0912C9.30657 11.0359 9.29405 10.9813 9.26994 10.9316C9.24583 10.8818 9.21077 10.8381 9.16738 10.8038V10.8044Z" fill="#979797"/>
<path d="M8.43963 3.50293C7.46325 3.50293 6.50879 3.79246 5.69695 4.33491C4.88511 4.87737 4.25236 5.64837 3.87872 6.55044C3.50507 7.4525 3.40731 8.44511 3.59779 9.40273C3.78827 10.3604 4.25845 11.24 4.94886 11.9304C5.63927 12.6208 6.5189 13.091 7.47653 13.2815C8.43416 13.472 9.42676 13.3742 10.3288 13.0005C11.2309 12.6269 12.0019 11.9942 12.5444 11.1823C13.0868 10.3705 13.3763 9.41602 13.3763 8.43963C13.3749 7.13078 12.8543 5.87595 11.9288 4.95045C11.0033 4.02495 9.74849 3.50437 8.43963 3.50293ZM8.43963 12.6437C7.60815 12.6437 6.79535 12.3971 6.104 11.9352C5.41265 11.4732 4.8738 10.8166 4.55561 10.0484C4.23742 9.28026 4.15416 8.43497 4.31638 7.61946C4.47859 6.80396 4.87899 6.05487 5.46693 5.46693C6.05488 4.87898 6.80396 4.47859 7.61947 4.31638C8.43497 4.15416 9.28026 4.23742 10.0484 4.55561C10.8166 4.8738 11.4732 5.41264 11.9352 6.10399C12.3971 6.79534 12.6437 7.60815 12.6437 8.43963C12.6425 9.55424 12.1991 10.6228 11.411 11.411C10.6228 12.1991 9.55424 12.6424 8.43963 12.6437Z" fill="#979797"/>
<path d="M16.5135 6.96954H15.0615C14.892 6.1982 14.5873 5.46297 14.1614 4.79792L15.1886 3.77177C15.2226 3.73776 15.2496 3.69738 15.2681 3.65293C15.2865 3.60848 15.296 3.56083 15.296 3.51272C15.296 3.4646 15.2865 3.41695 15.2681 3.3725C15.2496 3.32805 15.2226 3.28767 15.1886 3.25367L13.627 1.69225C13.5583 1.6236 13.4651 1.58504 13.368 1.58504C13.2709 1.58504 13.1778 1.6236 13.1091 1.69225L12.0823 2.71819C11.4173 2.29224 10.682 1.98748 9.91067 1.81806V0.366333C9.9107 0.318218 9.90124 0.270569 9.88284 0.226111C9.86444 0.181653 9.83746 0.141258 9.80344 0.107235C9.76941 0.0732125 9.72902 0.0462299 9.68456 0.0278297C9.6401 0.00942946 9.59245 -2.74582e-05 9.54434 5.98821e-08H7.33587C7.28776 -2.74582e-05 7.24011 0.00942946 7.19565 0.0278297C7.15119 0.0462299 7.1108 0.0732125 7.07677 0.107235C7.04275 0.141258 7.01577 0.181653 6.99737 0.226111C6.97897 0.270569 6.96951 0.318218 6.96954 0.366333V1.81827C6.19818 1.98769 5.46294 2.29245 4.79792 2.7184L3.77177 1.6912C3.70307 1.62256 3.60993 1.584 3.51282 1.584C3.41571 1.584 3.32257 1.62256 3.25388 1.6912L1.69225 3.25262C1.6582 3.28662 1.63119 3.327 1.61277 3.37145C1.59434 3.4159 1.58485 3.46355 1.58485 3.51167C1.58485 3.55979 1.59434 3.60743 1.61277 3.65188C1.63119 3.69633 1.6582 3.73671 1.69225 3.77072L2.71819 4.7975C2.29229 5.46255 1.98754 6.19778 1.81806 6.96912H0.366333C0.318218 6.96909 0.270569 6.97855 0.226111 6.99695C0.181653 7.01535 0.141258 7.04233 0.107235 7.07636C0.0732125 7.11038 0.0462299 7.15077 0.0278297 7.19523C0.00942946 7.23969 -2.74582e-05 7.28734 5.98821e-08 7.33545V9.54392C-2.74582e-05 9.59203 0.00942946 9.63968 0.0278297 9.68414C0.0462299 9.7286 0.0732125 9.76899 0.107235 9.80301C0.141258 9.83704 0.181653 9.86402 0.226111 9.88242C0.270569 9.90082 0.318218 9.91028 0.366333 9.91025H1.81827C1.98775 10.6816 2.2925 11.4168 2.7184 12.0819L1.69141 13.1091C1.65737 13.1431 1.63036 13.1835 1.61193 13.2279C1.5935 13.2724 1.58402 13.32 1.58402 13.3681C1.58402 13.4162 1.5935 13.4639 1.61193 13.5083C1.63036 13.5528 1.65737 13.5932 1.69141 13.6272L3.25304 15.1886C3.32173 15.2572 3.41487 15.2958 3.51198 15.2958C3.6091 15.2958 3.70223 15.2572 3.77093 15.1886L4.7975 14.1616C5.46252 14.5876 6.19776 14.8923 6.96912 15.0617V16.5137C6.96909 16.5618 6.97855 16.6094 6.99695 16.6539C7.01535 16.6983 7.04233 16.7387 7.07636 16.7728C7.11038 16.8068 7.15077 16.8338 7.19523 16.8522C7.23969 16.8706 7.28734 16.88 7.33545 16.88H9.54392C9.59203 16.88 9.63968 16.8706 9.68414 16.8522C9.7286 16.8338 9.76899 16.8068 9.80301 16.7728C9.83704 16.7387 9.86402 16.6983 9.88242 16.6539C9.90082 16.6094 9.91028 16.5618 9.91025 16.5137V15.0615C10.6816 14.8921 11.4168 14.5873 12.0819 14.1614L13.1091 15.1884C13.1778 15.257 13.2709 15.2956 13.368 15.2956C13.4651 15.2956 13.5583 15.257 13.627 15.1884L15.1886 13.627C15.2226 13.593 15.2496 13.5526 15.2681 13.5081C15.2865 13.4637 15.296 13.416 15.296 13.3679C15.296 13.3198 15.2865 13.2721 15.2681 13.2277C15.2496 13.1832 15.2226 13.1429 15.1886 13.1089L14.1616 12.0823C14.5875 11.4172 14.8922 10.682 15.0617 9.91067H16.5137C16.5618 9.9107 16.6094 9.90124 16.6539 9.88284C16.6983 9.86444 16.7387 9.83746 16.7728 9.80344C16.8068 9.76941 16.8338 9.72902 16.8522 9.68456C16.8706 9.6401 16.88 9.59245 16.88 9.54434V7.33587C16.88 7.28774 16.8706 7.24007 16.8521 7.1956C16.8337 7.15113 16.8067 7.11072 16.7727 7.0767C16.7386 7.04267 16.6982 7.0157 16.6537 6.99731C16.6093 6.97892 16.5616 6.96948 16.5135 6.96954ZM16.1471 9.17759H14.7601C14.6738 9.17761 14.5902 9.20811 14.5242 9.26372C14.4582 9.31933 14.4139 9.39647 14.3992 9.48154C14.2484 10.3584 13.9036 11.1906 13.39 11.9171C13.3403 11.9877 13.3172 12.0735 13.3246 12.1595C13.332 12.2455 13.3696 12.3261 13.4306 12.3871L14.4115 13.368L13.368 14.4115L12.3869 13.4306C12.3258 13.3696 12.2453 13.3321 12.1593 13.3247C12.0733 13.3172 11.9875 13.3404 11.9169 13.39C11.1904 13.9036 10.3584 14.2484 9.48154 14.3994C9.39647 14.4141 9.31933 14.4584 9.26372 14.5244C9.20811 14.5904 9.17761 14.674 9.17759 14.7603V16.1471H7.70221V14.7603C7.70218 14.674 7.67168 14.5904 7.61607 14.5244C7.56046 14.4584 7.48332 14.4141 7.39825 14.3994C6.52143 14.2484 5.68939 13.9036 4.96287 13.39C4.89229 13.3404 4.80646 13.3172 4.72049 13.3247C4.63453 13.3321 4.55394 13.3696 4.49292 13.4306L3.51177 14.4115L2.46825 13.368L3.44918 12.3871C3.51022 12.3261 3.54776 12.2455 3.55519 12.1595C3.56262 12.0735 3.53946 11.9877 3.48979 11.9171C2.97616 11.1906 2.63136 10.3584 2.4806 9.48154C2.4659 9.39647 2.42163 9.31933 2.3556 9.26372C2.28958 9.20811 2.20603 9.17761 2.11971 9.17759H0.732666V7.70221H2.11971C2.20603 7.70218 2.28958 7.67168 2.3556 7.61607C2.42163 7.56046 2.4659 7.48332 2.4806 7.39825C2.63136 6.52135 2.97616 5.68921 3.48979 4.96266C3.53946 4.89209 3.56262 4.80625 3.55519 4.72028C3.54776 4.6343 3.51022 4.55371 3.44918 4.49271L2.46825 3.51177L3.51177 2.46825L4.49292 3.44918C4.5539 3.51026 4.6345 3.54783 4.72048 3.55526C4.80647 3.56269 4.89232 3.5395 4.96287 3.48979C5.68939 2.97621 6.52143 2.63135 7.39825 2.48039C7.48332 2.46569 7.56046 2.42142 7.61607 2.35539C7.67168 2.28937 7.70218 2.20582 7.70221 2.1195V0.732666H9.17759V2.1195C9.17761 2.20582 9.20811 2.28937 9.26372 2.35539C9.31933 2.42142 9.39647 2.46569 9.48154 2.48039C10.3584 2.63135 11.1904 2.97621 11.9169 3.48979C11.9875 3.5395 12.0733 3.56269 12.1593 3.55526C12.2453 3.54783 12.3259 3.51026 12.3869 3.44918L13.368 2.46825L14.4115 3.51177L13.4306 4.49271C13.3696 4.55371 13.332 4.6343 13.3246 4.72028C13.3172 4.80625 13.3403 4.89209 13.39 4.96266C13.9036 5.68921 14.2484 6.52135 14.3992 7.39825C14.4139 7.48332 14.4582 7.56046 14.5242 7.61607C14.5902 7.67168 14.6738 7.70218 14.7601 7.70221H16.1471V9.17759Z" fill="#979797"/>
<path d="M8.93745 5.45902L9.16605 5.27836C9.20416 5.24867 9.23603 5.21172 9.25981 5.16966C9.28359 5.12759 9.29881 5.08124 9.3046 5.03327C9.31039 4.98529 9.30663 4.93665 9.29354 4.89014C9.28045 4.84362 9.25828 4.80016 9.22833 4.76225C9.19837 4.72434 9.1612 4.69273 9.11897 4.66924C9.07675 4.64575 9.03029 4.63085 8.98228 4.62539C8.93427 4.61993 8.88565 4.62403 8.83923 4.63744C8.79281 4.65085 8.7495 4.67331 8.71179 4.70353L7.71243 5.49335C7.66904 5.52764 7.63398 5.57131 7.60987 5.62109C7.58576 5.67087 7.57324 5.72546 7.57324 5.78076C7.57324 5.83607 7.58576 5.89066 7.60987 5.94044C7.63398 5.99021 7.66904 6.03388 7.71243 6.06818L8.71137 6.85799C8.74908 6.88821 8.79239 6.91067 8.83881 6.92409C8.88523 6.9375 8.93385 6.94159 8.98186 6.93613C9.02987 6.93068 9.07633 6.91577 9.11856 6.89229C9.16078 6.8688 9.19795 6.83719 9.22791 6.79928C9.25786 6.76137 9.28003 6.7179 9.29312 6.67139C9.30621 6.62487 9.30997 6.57623 9.30418 6.52826C9.29839 6.48029 9.28317 6.43393 9.25939 6.39187C9.23561 6.3498 9.20374 6.31286 9.16563 6.28316L9.12774 6.25323C9.50358 6.37159 9.84258 6.58482 10.112 6.87235C10.3814 7.15988 10.5722 7.51201 10.6659 7.89474C10.7596 8.27748 10.7531 8.6779 10.647 9.05739C10.5409 9.43687 10.3388 9.7826 10.0601 10.0612C9.9914 10.13 9.95283 10.2232 9.95287 10.3204C9.95291 10.4176 9.99156 10.5108 10.0603 10.5795C10.1291 10.6482 10.2223 10.6868 10.3195 10.6868C10.4167 10.6867 10.5099 10.6481 10.5786 10.5793C10.9716 10.1865 11.2488 9.69307 11.3797 9.15308C11.5105 8.61309 11.49 8.04748 11.3204 7.51838C11.1509 6.98927 10.8387 6.51714 10.4183 6.15384C9.99794 5.79054 9.48555 5.55013 8.93745 5.45902Z" fill="#979797"/>
</svg>
