<svg width="20" height="16" viewBox="0 0 20 16" fill="none" xmlns="http://www.w3.org/2000/svg">
<path d="M12.9966 0.989849C12.9469 0.836691 12.8383 0.709598 12.6949 0.6365C12.5513 0.563321 12.3848 0.550288 12.2315 0.600072L9.69165 1.42544C9.37278 1.52906 9.19817 1.87156 9.30187 2.19042L9.4288 2.58125L2.96807 7.32697L0.419513 8.15501C0.266355 8.20479 0.139263 8.31335 0.0661643 8.45679C-0.00693382 8.60024 -0.0200478 8.76691 0.0297367 8.92007L1.57824 13.685C1.66161 13.9415 1.89961 14.1046 2.15549 14.1046C2.21774 14.1046 2.28097 14.095 2.3433 14.0747L4.89145 13.2467L6.20066 13.2536C6.46359 14.495 7.56775 15.4295 8.88627 15.4295C10.1948 15.4295 11.2916 14.509 11.5653 13.2818L12.908 13.2889L13.035 13.6798C13.0847 13.8329 13.1932 13.96 13.3368 14.0331C13.4229 14.077 13.5174 14.0993 13.6124 14.0993C13.6755 14.0993 13.7389 14.0894 13.8 14.0696L16.3399 13.2443C16.6588 13.1407 16.8334 12.7982 16.7298 12.4793L12.9966 0.989849ZM2.54535 12.7323L1.37222 9.12212L2.85879 8.63909L4.03176 12.2492L2.54535 12.7323ZM8.88619 14.2153C8.24571 14.2153 7.69671 13.8197 7.46851 13.2603L10.2984 13.2752C10.0666 13.8269 9.52108 14.2153 8.88619 14.2153ZM5.23857 12.0342L4.60003 10.069L3.9615 8.10377L9.82384 3.79769L11.6217 9.33057L12.5126 12.0726L5.23857 12.0342ZM14.0021 12.7272L13.9275 12.4978C13.9275 12.4974 13.9274 12.4969 13.9272 12.4965L12.3232 7.55986L10.6443 2.39256L12.0294 1.94239L15.3872 12.2769L14.0021 12.7272Z" fill="#979797"/>
<path d="M15.0415 3.94139C15.1299 3.9864 15.2239 4.00769 15.3167 4.00769C15.5377 4.00769 15.7508 3.88659 15.8581 3.67612L16.9478 1.53822C17.1001 1.23951 16.9814 0.873858 16.6826 0.721591C16.3839 0.569404 16.0183 0.687996 15.866 0.986784L14.7764 3.12468C14.624 3.42347 14.7428 3.78912 15.0415 3.94139Z" fill="#979797"/>
<path d="M19.6041 9.71499L17.4659 8.6258C17.1671 8.4737 16.8015 8.59245 16.6493 8.89124C16.497 9.19002 16.616 9.5556 16.9147 9.70778L19.0529 10.797C19.1412 10.8419 19.2353 10.8632 19.328 10.8632C19.549 10.8632 19.7622 10.742 19.8694 10.5315C20.0217 10.2328 19.9029 9.86726 19.6041 9.71499Z" fill="#979797"/>
<path d="M16.5338 6.19261C16.6172 6.44914 16.8552 6.61226 17.111 6.61226C17.1733 6.61226 17.2365 6.60263 17.2988 6.58239L19.5807 5.84088C19.8995 5.73727 20.0741 5.39476 19.9704 5.07582C19.8668 4.75688 19.5243 4.58267 19.2053 4.68604L16.9235 5.42755C16.6047 5.53125 16.4302 5.87375 16.5338 6.19261Z" fill="#979797"/>
</svg>
