<svg width="18" height="20" viewBox="0 0 18 20" fill="none" xmlns="http://www.w3.org/2000/svg">
<path d="M3.43457 17.3975C3.27273 17.3975 3.1416 17.5286 3.1416 17.6904V19.7066C3.1416 19.8684 3.27273 19.9995 3.43457 19.9995C3.59641 19.9995 3.72754 19.8684 3.72754 19.7066V17.6904C3.72754 17.5286 3.59641 17.3975 3.43457 17.3975Z" fill="#979797"/>
<path d="M16.966 15.3183H16.0276C15.7049 14.6553 15.1631 14.1305 14.4806 13.828L10.6604 12.1905C10.6596 12.1902 10.6589 12.19 10.6582 12.1897L10.6376 12.1809C10.6382 12.1587 10.6395 12.1364 10.6395 12.1143V10.5728C11.423 9.88566 11.9185 8.87782 11.9185 7.75634V7.4797H12.3032C12.7529 7.4797 13.1187 7.11392 13.1187 6.66427V5.63127C13.1187 5.25642 12.8641 4.94068 12.519 4.84576V4.24764C12.519 1.90546 10.6134 0 8.27114 0H8.07434C5.73209 0 3.82647 1.90546 3.82647 4.24764V4.84572C3.48131 4.94061 3.22667 5.25639 3.22667 5.63131V6.66431C3.22667 7.11396 3.59245 7.47974 4.04209 7.47974H4.42541V7.75638C4.42541 8.87864 4.92158 9.88707 5.70591 10.5743V12.1143C5.70591 12.1414 5.70642 12.1684 5.70728 12.1952L1.91519 13.8441C0.751755 14.3336 0 15.4655 0 16.7277V19.7068C0 19.8686 0.131132 19.9997 0.292968 19.9997C0.454803 19.9997 0.585935 19.8686 0.585935 19.7068V16.7277C0.585935 15.7019 1.19691 14.782 2.14562 14.3828L4.59682 13.317L4.90611 13.8454C4.98787 13.985 5.16736 14.0319 5.30697 13.9502C5.44658 13.8685 5.49353 13.689 5.41181 13.5494L5.13811 13.0818L5.7706 12.8068L5.8913 12.8998C5.8922 12.9005 5.8931 12.9012 5.894 12.9019L7.7147 14.3049L6.49419 15.3983L5.93463 14.4424C5.85287 14.3028 5.67345 14.2558 5.53377 14.3376C5.39416 14.4193 5.34721 14.5988 5.42892 14.7384L6.1697 16.0039C6.21416 16.0798 6.29033 16.1317 6.37724 16.1453C6.39236 16.1477 6.40747 16.1488 6.42255 16.1488C6.49415 16.1488 6.56392 16.1226 6.61806 16.0741L7.71989 15.0869L6.83775 19.6514C6.80704 19.8102 6.91091 19.9639 7.06978 19.9946C7.22868 20.0254 7.38232 19.9214 7.41298 19.7626L8.17262 15.8319L8.93227 19.7626C8.9593 19.9027 9.08204 20 9.21957 20C9.23801 20 9.25668 19.9982 9.27547 19.9946C9.43434 19.9639 9.53824 19.8102 9.5075 19.6514L8.62536 15.0869L9.72719 16.0741C9.78133 16.1226 9.85106 16.1488 9.9227 16.1488C9.93777 16.1488 9.95289 16.1477 9.96801 16.1453C10.0549 16.1317 10.1311 16.0798 10.1755 16.0039L11.7589 13.2991L14.2465 14.3652C14.7078 14.5696 15.0907 14.9008 15.3574 15.3183H12.1827C11.7201 15.3183 11.3439 15.6946 11.3439 16.1572V19.1611C11.3439 19.6236 11.7201 19.9999 12.1827 19.9999H16.966C17.4286 19.9999 17.8049 19.6236 17.8049 19.1611V16.1572C17.8049 15.6946 17.4286 15.3183 16.966 15.3183ZM12.5327 6.66427C12.5327 6.79079 12.4297 6.89376 12.3032 6.89376H11.9191V5.40178H12.3032C12.4297 5.40178 12.5327 5.50474 12.5327 5.63127V6.66427ZM4.04209 6.89376C3.91557 6.89376 3.8126 6.79079 3.8126 6.66427V5.63127C3.8126 5.50474 3.91557 5.40178 4.04209 5.40178H4.42541V6.89376H4.04209ZM5.01135 7.75634L5.01205 5.10881C5.01205 5.10689 5.01182 5.10502 5.01178 5.10311C5.01838 4.91217 5.06857 4.561 5.32158 4.26045C5.57607 3.95823 5.8999 3.86467 6.00627 3.83393C6.42802 3.71206 6.69384 3.83373 7.06165 4.00209C7.41798 4.16526 7.82169 4.35041 8.41809 4.32073C8.87204 4.2983 9.20278 4.15881 9.46641 4.0253C9.61074 3.95217 9.66852 3.77592 9.59539 3.63155C9.52227 3.48721 9.34602 3.42952 9.20168 3.50256C8.94848 3.63081 8.71336 3.71952 8.38919 3.73549C7.93579 3.75792 7.6297 3.61772 7.3056 3.46936C6.91603 3.291 6.47462 3.08878 5.84373 3.271C5.44478 3.38624 5.11834 3.59217 4.87338 3.88307C4.60818 4.19803 4.49768 4.54561 4.45319 4.81568H4.41248V4.24764C4.41248 2.22859 6.05521 0.585935 8.07438 0.585935H8.27118C10.2904 0.585935 11.9331 2.22855 11.9331 4.24764V4.81568H11.9067C11.8828 4.60729 11.8214 4.36412 11.6852 4.11905C11.4511 3.69795 11.0366 3.36452 10.5763 3.22717C10.4213 3.181 10.2581 3.26913 10.2118 3.42413C10.1655 3.57917 10.2537 3.74237 10.4087 3.78866C10.5275 3.82409 10.9337 3.97323 11.173 4.40373C11.3176 4.66385 11.3397 4.92443 11.3328 5.09721C11.3327 5.10107 11.3326 5.10498 11.3326 5.10885V7.75638C11.3326 9.49903 9.91477 10.9168 8.172 10.9168C6.42919 10.9168 5.01135 9.49903 5.01135 7.75634ZM6.33224 12.4999C6.32162 12.4486 6.31236 12.3969 6.30603 12.3441C6.29666 12.2696 6.29189 12.1923 6.29189 12.1143V10.9958C6.84482 11.318 7.4872 11.5028 8.17196 11.5028C8.85739 11.5028 9.50028 11.3176 10.0536 10.9949V12.1144C10.0536 12.1877 10.0493 12.2618 10.0407 12.3351C10.0343 12.3906 10.0252 12.4454 10.0139 12.4992L8.17262 13.9181L6.33224 12.4999ZM9.85109 15.3983L8.63059 14.3049L10.5875 12.7969L11.0774 13.0067L11.2163 13.0662L9.85109 15.3983ZM17.2189 19.1611C17.2189 19.3006 17.1055 19.414 16.966 19.414H12.1827C12.0433 19.414 11.9298 19.3006 11.9298 19.1611V16.1572C11.9298 16.0177 12.0432 15.9043 12.1827 15.9043H15.8385C15.8386 15.9043 15.8388 15.9043 15.839 15.9043C15.8393 15.9043 15.8395 15.9043 15.8398 15.9043H16.966C17.1054 15.9043 17.2189 16.0177 17.2189 16.1572V19.1611Z" fill="#979797"/>
<path d="M16.6688 17.2087C16.6688 16.7689 16.2982 16.4111 15.8427 16.4111H15.3268C15.3267 16.4111 15.3266 16.4111 15.3265 16.4111C15.3264 16.4111 15.3263 16.4111 15.3262 16.4111C15.1643 16.4111 15.0332 16.5423 15.0332 16.7041V18.6455C15.0332 18.8073 15.1643 18.9385 15.3262 18.9385C15.488 18.9385 15.6191 18.8073 15.6191 18.6455V18.2292L16.156 18.8391C16.2139 18.9049 16.2948 18.9385 16.376 18.9385C16.4448 18.9385 16.5138 18.9145 16.5695 18.8655C16.6909 18.7586 16.7027 18.5734 16.5958 18.452L16.152 17.9477C16.4546 17.8293 16.6688 17.5429 16.6688 17.2087ZM15.8427 16.9971C15.9729 16.9971 16.0829 17.0939 16.0829 17.2087C16.0829 17.3234 15.9729 17.4203 15.8427 17.4203C15.7898 17.4203 15.7063 17.4206 15.6218 17.421C15.6214 17.3394 15.6211 17.2593 15.6211 17.2087C15.6211 17.1652 15.6209 17.0829 15.6206 16.9971H15.8427V16.9971Z" fill="#979797"/>
<path d="M14.1463 16.4111C13.9845 16.4111 13.8534 16.5423 13.8534 16.7041V17.3486H13.0957V16.7041C13.0957 16.5423 12.9646 16.4111 12.8027 16.4111C12.6409 16.4111 12.5098 16.5423 12.5098 16.7041V18.6455C12.5098 18.8073 12.6409 18.9385 12.8027 18.9385C12.9646 18.9385 13.0957 18.8073 13.0957 18.6455V17.9345H13.8534V18.6455C13.8534 18.8073 13.9845 18.9385 14.1463 18.9385C14.3082 18.9385 14.4393 18.8073 14.4393 18.6455V16.7041C14.4393 16.5423 14.3082 16.4111 14.1463 16.4111Z" fill="#979797"/>
</svg>
