<svg width="16" height="18" viewBox="0 0 16 18" fill="none" xmlns="http://www.w3.org/2000/svg">
<path d="M5.16881 11.4551H4.38867V17.0803H5.16881V11.4551Z" fill="#979797"/>
<path d="M8.41197 10.5117H7.63184V17.0813H8.41197V10.5117Z" fill="#979797"/>
<path d="M1.92462 14.9863H1.18555V17.0804H1.92462V14.9863Z" fill="#979797"/>
<path d="M11.6151 8.12988H10.835V17.0809H11.6151V8.12988Z" fill="#979797"/>
<path d="M14.8172 5.99512H14.0781V17.0813H14.8172V5.99512Z" fill="#979797"/>
<path d="M15.881 0.110861C15.7988 0.0410598 15.6962 0 15.5853 0H12.7727C12.5469 0 12.3621 0.184769 12.3621 0.410598C12.3621 0.636426 12.5469 0.821195 12.7727 0.821195L14.5876 0.817089L10.149 5.25975L8.59286 3.69538C8.51485 3.61736 8.4122 3.5722 8.30134 3.56809C8.19047 3.5722 8.08782 3.61736 8.00981 3.69538L0.126338 11.5871C-0.0379013 11.7431 -0.0420073 12.0059 0.11402 12.1701C0.270047 12.3343 0.532829 12.3385 0.697068 12.1824C0.701174 12.1783 0.70528 12.1742 0.709386 12.1742L8.30544 4.57816L9.86161 6.13022C9.93962 6.20413 10.0423 6.24519 10.1531 6.24519C10.2599 6.24519 10.3666 6.20413 10.4447 6.13022L15.1788 1.39603L15.1747 3.20677C15.1747 3.4326 15.3554 3.61326 15.5812 3.61326H15.5853C15.8111 3.61736 15.9918 3.4367 15.9959 3.21087C15.9959 3.21087 15.9959 3.21087 15.9959 3.20677L16 0.39828C16 0.291524 15.9549 0.188875 15.881 0.110861Z" fill="#979797"/>
</svg>
