<svg width="19" height="17" viewBox="0 0 19 17" fill="none" xmlns="http://www.w3.org/2000/svg">
<path d="M0.553162 2.3771C0.554321 2.3771 0.555481 2.37695 0.556641 2.37695H5.60352V1.82031C5.60352 0.899536 6.35266 0.150391 7.27344 0.150391H11.7266C12.6473 0.150391 13.3965 0.899536 13.3965 1.82031V2.37695H18.4434C18.7533 2.37695 19 2.63092 19 2.93359V15.1797C19 16.1005 18.2509 16.8496 17.3301 16.8496H1.66992C0.749146 16.8496 0 16.1005 0 15.1797V2.94534C0 2.94461 0 2.94389 0 2.94316C0.0213089 2.57758 0.24614 2.37913 0.553162 2.3771ZM12.2832 1.82031C12.2832 1.51344 12.0334 1.26367 11.7266 1.26367H7.27344C6.96656 1.26367 6.7168 1.51344 6.7168 1.82031V2.37695H12.2832V1.82031ZM1.32898 3.49023L3.05761 8.67598C3.13342 8.90371 3.34564 9.05664 3.58555 9.05664H6.7168V8.5C6.7168 8.19254 6.96598 7.94336 7.27344 7.94336H11.7266C12.034 7.94336 12.2832 8.19254 12.2832 8.5V9.05664H15.4145C15.6544 9.05664 15.8666 8.90371 15.9424 8.67598L17.671 3.49023H1.32898ZM7.83008 9.05664V10.1699H11.1699V9.05664H7.83008ZM1.11328 15.1797C1.11328 15.4866 1.36304 15.7363 1.66992 15.7363H17.3301C17.637 15.7363 17.8867 15.4866 17.8867 15.1797V6.36375L16.9986 9.02808C16.771 9.71113 16.1343 10.1699 15.4145 10.1699H12.2832V10.7266C12.2832 11.034 12.034 11.2832 11.7266 11.2832H7.27344C6.96598 11.2832 6.7168 11.034 6.7168 10.7266V10.1699H3.58555C2.86568 10.1699 2.22903 9.71113 2.00144 9.02808L1.11328 6.36375V15.1797Z" fill="#979797"/>
</svg>
