<svg width="35" height="35" viewBox="0 0 35 35" fill="none" xmlns="http://www.w3.org/2000/svg">
<path d="M3.64648 27.708V10.208H31.3548V27.708C31.3548 29.3122 30.0423 30.6247 28.4382 30.6247H6.56315C4.95898 30.6247 3.64648 29.3122 3.64648 27.708Z" fill="#CFD8DC"/>
<path d="M31.3548 7.29167V11.6667H3.64648V7.29167C3.64648 5.6875 4.95898 4.375 6.56315 4.375H28.4382C30.0423 4.375 31.3548 5.6875 31.3548 7.29167Z" fill="#F44336"/>
<path d="M24.0625 9.47949C25.2706 9.47949 26.25 8.50012 26.25 7.29199C26.25 6.08387 25.2706 5.10449 24.0625 5.10449C22.8544 5.10449 21.875 6.08387 21.875 7.29199C21.875 8.50012 22.8544 9.47949 24.0625 9.47949Z" fill="#B71C1C"/>
<path d="M10.9375 9.47949C12.1456 9.47949 13.125 8.50012 13.125 7.29199C13.125 6.08387 12.1456 5.10449 10.9375 5.10449C9.72938 5.10449 8.75 6.08387 8.75 7.29199C8.75 8.50012 9.72938 9.47949 10.9375 9.47949Z" fill="#B71C1C"/>
<path d="M24.0618 2.1875C23.2598 2.1875 22.6035 2.84375 22.6035 3.64583V7.29167C22.6035 8.09375 23.2598 8.75 24.0618 8.75C24.8639 8.75 25.5202 8.09375 25.5202 7.29167V3.64583C25.5202 2.84375 24.8639 2.1875 24.0618 2.1875Z" fill="#B0BEC5"/>
<path d="M10.9368 2.1875C10.1348 2.1875 9.47852 2.84375 9.47852 3.64583V7.29167C9.47852 8.09375 10.1348 8.75 10.9368 8.75C11.7389 8.75 12.3952 8.09375 12.3952 7.29167V3.64583C12.3952 2.84375 11.7389 2.1875 10.9368 2.1875Z" fill="#B0BEC5"/>
<path d="M9.47852 14.583H12.3952V17.4997H9.47852V14.583Z" fill="#90A4AE"/>
<path d="M13.8535 14.583H16.7702V17.4997H13.8535V14.583Z" fill="#90A4AE"/>
<path d="M18.2285 14.583H21.1452V17.4997H18.2285V14.583Z" fill="#90A4AE"/>
<path d="M22.6035 14.583H25.5202V17.4997H22.6035V14.583Z" fill="#90A4AE"/>
<path d="M9.47852 18.958H12.3952V21.8747H9.47852V18.958Z" fill="#90A4AE"/>
<path d="M13.8535 18.958H16.7702V21.8747H13.8535V18.958Z" fill="#90A4AE"/>
<path d="M18.2285 18.958H21.1452V21.8747H18.2285V18.958Z" fill="#90A4AE"/>
<path d="M22.6035 18.958H25.5202V21.8747H22.6035V18.958Z" fill="#90A4AE"/>
<path d="M9.47852 23.333H12.3952V26.2497H9.47852V23.333Z" fill="#90A4AE"/>
<path d="M13.8535 23.333H16.7702V26.2497H13.8535V23.333Z" fill="#90A4AE"/>
<path d="M18.2285 23.333H21.1452V26.2497H18.2285V23.333Z" fill="#90A4AE"/>
<path d="M22.6035 23.333H25.5202V26.2497H22.6035V23.333Z" fill="#90A4AE"/>
</svg>
