<svg width="22" height="25" viewBox="0 0 22 25" fill="none" xmlns="http://www.w3.org/2000/svg">
<path d="M13.905 18.4296L14.307 18.6545L14.564 18.2723C14.8943 17.7811 15.3223 17.3863 15.8105 17.116C16.2983 16.8459 16.8342 16.7066 17.3755 16.7066C18.1033 16.707 18.8176 16.9589 19.4164 17.4347C20.0161 17.9111 20.4701 18.5887 20.7057 19.3759C20.9414 20.1632 20.9443 21.0133 20.714 21.8027C20.4837 22.5919 20.0342 23.2734 19.4377 23.7549C18.8419 24.2357 18.1292 24.4935 17.4015 24.4999C16.6738 24.5063 15.9578 24.261 15.3555 23.791C14.7524 23.3204 14.2932 22.6472 14.0515 21.8623C13.8098 21.0773 13.8003 20.2274 14.0245 19.4358L14.1321 19.056L13.7877 18.8632L7.50386 15.3453L7.09844 15.1184L6.84239 15.5061C6.40958 16.1615 5.80698 16.6451 5.12382 16.8988C4.44153 17.1523 3.70616 17.1666 3.01671 16.9404C2.32644 16.714 1.70925 16.255 1.25586 15.6179C0.802125 14.9803 0.537257 14.1986 0.503644 13.3807C0.47003 12.5628 0.669682 11.7568 1.07048 11.0751C1.47106 10.3937 2.05009 9.87397 2.72094 9.57952C3.39087 9.28548 4.12465 9.2279 4.82332 9.41261C5.52271 9.59751 6.16034 10.0184 6.64352 10.6264L6.92787 10.9842L7.30972 10.7331L13.9173 6.38705L14.245 6.17152L14.1137 5.80192C13.7887 4.88722 13.789 3.87014 14.1144 2.95565C14.4397 2.04161 15.0617 1.30736 15.8445 0.887043C16.6254 0.467736 17.5164 0.3867 18.3455 0.655805C19.1762 0.925445 19.8969 1.53166 20.3545 2.36931C20.8125 3.20774 20.9686 4.20947 20.7869 5.17355C20.6052 6.13742 20.1018 6.98057 19.3892 7.54251C18.6783 8.10318 17.8096 8.34541 16.9538 8.23258C16.0972 8.11964 15.2992 7.65676 14.7239 6.9196L14.4402 6.55613L14.055 6.8095L7.44739 11.1555L7.11529 11.3739L7.25322 11.7467C7.55809 12.5708 7.59941 13.4861 7.3693 14.3406L7.268 14.7167L7.60799 14.9069L13.905 18.4296ZM17.3758 0.949465L17.3749 0.949467C16.5183 0.95101 15.7075 1.32513 15.117 1.97242C14.5279 2.61818 14.2033 3.48457 14.202 4.37986V4.38061C14.202 5.04954 14.3827 5.70669 14.7256 6.26929C15.0688 6.83223 15.5611 7.27836 16.1459 7.54389C16.7314 7.80977 17.3788 7.88027 18.004 7.74395C18.6286 7.60774 19.1955 7.27298 19.6359 6.79021C20.0759 6.30791 20.3711 5.69872 20.4903 5.04171C20.6095 4.38477 20.5486 3.70342 20.3139 3.08218C20.0791 2.46075 19.6787 1.92239 19.1568 1.54008C18.6342 1.15728 18.0143 0.949466 17.3758 0.949465ZM17.3732 24.0393L17.695 24.0395L17.706 24.0154C18.4392 23.9317 19.1204 23.5751 19.6346 23.0115C20.2237 22.3657 20.5483 21.4993 20.5497 20.604L20.5497 20.6025C20.5487 19.934 20.3671 19.2775 20.0237 18.7156C19.68 18.1535 19.1875 17.7082 18.6027 17.4435C18.0172 17.1784 17.3701 17.1085 16.7454 17.2453C16.1212 17.3819 15.5548 17.7168 15.1148 18.1995C14.6753 18.6818 14.3804 19.2907 14.2613 19.9474C14.1422 20.604 14.203 21.2849 14.4375 21.9059C14.6721 22.527 15.072 23.0653 15.5935 23.4476C16.1156 23.8305 16.735 24.0387 17.3732 24.0393ZM17.3749 23.0344L17.2425 23.0347C16.869 23.0089 16.504 22.8752 16.1848 22.6412C15.8276 22.3793 15.5428 22.0022 15.373 21.5526C15.2032 21.1029 15.1582 20.6058 15.2453 20.1258C15.3323 19.6459 15.5462 19.2107 15.8539 18.8732C16.1611 18.5361 16.5467 18.3124 16.9592 18.2221C17.3711 18.132 17.7987 18.1772 18.1903 18.3544C18.5826 18.5321 18.9256 18.8367 19.1705 19.2372C19.4154 19.6378 19.5488 20.1133 19.5497 20.6033C19.5485 21.2617 19.309 21.8846 18.8958 22.3375C18.4839 22.7891 17.9358 23.0334 17.3749 23.0344ZM4.00208 16.6607H4.00298C4.85965 16.6592 5.67043 16.285 6.2609 15.6378C6.84998 14.992 7.17461 14.1256 7.17595 13.2303V13.2296C7.17595 12.5606 6.99519 11.9035 6.65226 11.3409C6.30914 10.7779 5.81683 10.3318 5.23205 10.0663C4.6465 9.8004 3.99908 9.7299 3.37392 9.86622C2.74927 10.0024 2.18238 10.3372 1.74198 10.82C1.30201 11.3023 1.00685 11.9115 0.887631 12.5685C0.768429 13.2254 0.829285 13.9067 1.06403 14.528C1.29884 15.1494 1.69918 15.6878 2.22111 16.0701C2.74373 16.4529 3.36355 16.6607 4.00208 16.6607ZM15.8558 2.64636C16.2676 2.19493 16.8155 1.95061 17.3763 1.94947C17.7953 1.94956 18.2092 2.08556 18.5659 2.34682C18.9234 2.60867 19.2085 2.98587 19.3784 3.43564C19.5484 3.88558 19.5935 4.38294 19.5063 4.86317C19.4192 5.34334 19.2051 5.77871 18.8971 6.11627C18.5896 6.45335 18.2037 6.67691 17.7909 6.7669C17.3788 6.85678 16.9509 6.81119 16.5593 6.63336C16.1669 6.45519 15.824 6.14994 15.5795 5.74883C15.3349 5.34743 15.202 4.87123 15.202 4.38076C15.2031 3.72228 15.4426 3.09929 15.8558 2.64636ZM4.0017 15.6607C3.58268 15.6606 3.16872 15.5246 2.81202 15.2633C2.45452 15.0015 2.16942 14.6243 1.99948 14.1745C1.82946 13.7246 1.78442 13.2272 1.87156 12.747C1.95869 12.2668 2.17284 11.8315 2.48077 11.4939C2.78826 11.1568 3.17425 10.9333 3.58696 10.8433C3.99915 10.7534 4.42698 10.799 4.81861 10.9768C5.211 11.155 5.55389 11.4602 5.79838 11.8613C6.043 12.2627 6.17588 12.7388 6.17595 13.2291C6.17488 13.8877 5.93535 14.5108 5.52211 14.9638C5.11032 15.4152 4.56244 15.6595 4.0017 15.6607Z" stroke="#5564E7"/>
</svg>
